<?xml version="1.0" encoding="utf-8"?>
<!-- Generator: Adobe Illustrator 26.3.1, SVG Export Plug-In . SVG Version: 6.00 Build 0)  -->
<svg version="1.1" xmlns="http://www.w3.org/2000/svg" xmlns:xlink="http://www.w3.org/1999/xlink" x="0px" y="0px"
	 viewBox="0 0 1800 1200" style="enable-background:new 0 0 1800 1200;" xml:space="preserve">
<style type="text/css">
	.st0{fill:#211E39;}
	.st1{filter:url(#Adobe_OpacityMaskFilter);}
	.st2{filter:url(#Adobe_OpacityMaskFilter_00000005947997614577143620000009636492963700216216_);}
	.st3{mask:url(#SVGID_1_);fill:url(#SVGID_00000006667908282495320050000006012006438722240178_);}
	.st4{fill:url(#SVGID_00000072982319645175039700000004890550186455389825_);}
	.st5{fill:#FFFFFF;}
	.st6{fill:#3E3D79;}
	.st7{fill:#6FD6FF;}
	.st8{fill:#FAF7FF;}
	.st9{fill:#F45180;}
	.st10{fill:#151538;}
	.st11{filter:url(#Adobe_OpacityMaskFilter_00000117655372714902193960000016684335519499765125_);}
	.st12{filter:url(#Adobe_OpacityMaskFilter_00000045590594112058404480000000157380538735454631_);}
	
		.st13{mask:url(#SVGID_00000034811448745024878300000007571782872732490899_);fill:url(#SVGID_00000070799697998419098740000006308504222411529885_);}
	.st14{fill:url(#SVGID_00000096042031307133110100000016895757790173472137_);}
	.st15{filter:url(#Adobe_OpacityMaskFilter_00000072987677244723421790000007108537579565452957_);}
	.st16{filter:url(#Adobe_OpacityMaskFilter_00000065788716409214949870000006350320757273663879_);}
	
		.st17{mask:url(#SVGID_00000176016339408823956980000014193648417789152435_);fill:url(#SVGID_00000076589993193314580960000013561859237293167008_);}
	.st18{fill:url(#SVGID_00000088822702017673987010000015258021410009773978_);}
	.st19{filter:url(#Adobe_OpacityMaskFilter_00000031902578261470609520000009143849435643466136_);}
	.st20{filter:url(#Adobe_OpacityMaskFilter_00000030473294419752096560000009312804972535231166_);}
	
		.st21{mask:url(#SVGID_00000028285234252658909130000017657090388024374944_);fill:url(#SVGID_00000159470617010595755850000007471062531769974420_);}
	.st22{fill:url(#SVGID_00000150785906142448863560000017540245342825538201_);}
	.st23{fill:#76A0FF;}
	.st24{fill:#2A4FB7;}
	.st25{fill:#1A182E;}
	.st26{fill:#251642;}
	.st27{fill:#B24470;}
	.st28{fill:#FFC2AF;}
	.st29{fill:#121049;}
	.st30{fill:#7D61CC;}
	.st31{fill:#FDC0AD;}
	.st32{fill:#5B32C9;}
	.st33{fill:#433F93;}
	.st34{fill:#927AB3;}
	.st35{filter:url(#Adobe_OpacityMaskFilter_00000109012453079570238410000014202999304693268365_);}
	.st36{filter:url(#Adobe_OpacityMaskFilter_00000101803795990443991020000002350060551565036471_);}
	
		.st37{mask:url(#SVGID_00000178902446717323231860000007963619065850520965_);fill:url(#SVGID_00000099634408730372917700000010128634278229236368_);}
	.st38{fill:url(#SVGID_00000067953687018545962530000017654705055356832954_);}
	.st39{fill:#59ABCC;}
	.st40{fill:#F0F1FC;}
	.st41{fill:#E0E3FC;}
	.st42{filter:url(#Adobe_OpacityMaskFilter_00000031176109433914356610000006615035651573870523_);}
	.st43{filter:url(#Adobe_OpacityMaskFilter_00000067925117214268327950000016881679179351992238_);}
	
		.st44{mask:url(#SVGID_00000096020739716488513750000006703695299570514863_);fill:url(#SVGID_00000158725839043826240270000005256372303663272328_);}
	.st45{fill:url(#SVGID_00000056403956291186005630000002999437769050602389_);}
	.st46{opacity:0.1;fill:#FFFFFF;}
	.st47{fill:none;}
	.st48{fill:#D0AEFF;}
	.st49{font-family:'BebasNeue-Regular';}
	.st50{font-size:86px;}
</style>
<g id="bg">
	<g>
		<g>
			<g>
				<g>
					<g>
						<g>
							<path class="st0" d="M1768.04,1200H31.96C14.31,1200,0,1185.69,0,1168.04V31.96C0,14.31,14.31,0,31.96,0h1736.08
								c17.65,0,31.96,14.31,31.96,31.96v1136.08C1800,1185.69,1785.69,1200,1768.04,1200z"/>
						</g>
					</g>
				</g>
			</g>
		</g>
	</g>
</g>
<g id="isometric">
	<defs>
		<filter id="Adobe_OpacityMaskFilter" filterUnits="userSpaceOnUse" x="1238.9" y="0" width="565.78" height="684.01">
			<feFlood  style="flood-color:white;flood-opacity:1" result="back"/>
			<feBlend  in="SourceGraphic" in2="back" mode="normal"/>
		</filter>
	</defs>
	<mask maskUnits="userSpaceOnUse" x="1238.9" y="0" width="565.78" height="684.01" id="SVGID_1_">
		<g class="st1">
			<defs>
				
					<filter id="Adobe_OpacityMaskFilter_00000134213778855936556250000001434784342819318153_" filterUnits="userSpaceOnUse" x="1238.9" y="0" width="565.78" height="684.01">
					<feFlood  style="flood-color:white;flood-opacity:1" result="back"/>
					<feBlend  in="SourceGraphic" in2="back" mode="normal"/>
				</filter>
			</defs>
			<mask maskUnits="userSpaceOnUse" x="1238.9" y="0" width="565.78" height="684.01" id="SVGID_1_">
				<g style="filter:url(#Adobe_OpacityMaskFilter_00000134213778855936556250000001434784342819318153_);">
				</g>
			</mask>
			
				<linearGradient id="SVGID_00000067917507563447003120000005524132127895487908_" gradientUnits="userSpaceOnUse" x1="1322.7926" y1="495.1361" x2="1740.7039" y2="130.6781">
				<stop  offset="0" style="stop-color:#525252"/>
				<stop  offset="0.5302" style="stop-color:#262626"/>
				<stop  offset="1" style="stop-color:#000000"/>
			</linearGradient>
			<path style="mask:url(#SVGID_1_);fill:url(#SVGID_00000067917507563447003120000005524132127895487908_);" d="M1804.68,0H1349.6
				l-110.7,62.19l1.63,365.51v43.19l125,71.58l22.69,68.77l66.06-17.95l154.82,88.66c4.73,2.71,10.59,2.73,15.34,0.07L1804.68,581V0
				z"/>
		</g>
	</mask>
	
		<radialGradient id="SVGID_00000128454811278835994590000002765670547589233067_" cx="1542.7491" cy="299.5495" r="435.3135" gradientTransform="matrix(0.8976 -0.4572 0.332 0.7011 58.5658 780.6795)" gradientUnits="userSpaceOnUse">
		<stop  offset="0" style="stop-color:#1A182E"/>
		<stop  offset="1" style="stop-color:#FFFFFF;stop-opacity:0"/>
	</radialGradient>
	<path style="fill:url(#SVGID_00000128454811278835994590000002765670547589233067_);" d="M1804.68,0H1349.6l-110.7,62.19
		l1.63,365.51v43.19l125,71.58l22.69,68.77l66.06-17.95l154.82,88.66c4.73,2.71,10.59,2.73,15.34,0.07L1804.68,581V0z"/>
	<polygon class="st5" points="1312.77,605.84 1372.98,643.54 1436.06,606.26 1442.28,581.99 1435.34,576.6 1367.34,545.36 
		1363.12,564.27 1302.77,594.76 	"/>
	<polygon class="st6" points="1302.77,603.25 1372.98,643.54 1372.98,634.81 1350.62,606.94 1302.77,594.76 	"/>
	<polygon class="st7" points="1302.77,594.76 1372.98,634.81 1429.19,602.36 1435.34,576.6 1367.34,537.34 1360.82,561.23 	"/>
	<path class="st5" d="M1235.84,450.84l360.33,228.24c0,0,20.44-7.66,20.44-19.27V341.13c0-7.41-3.93-14.26-10.32-18.01
		L1248.3,113.15c-4.39-2.57-9.87-2.4-14.08,0.46l-14.19,8.96L1235.84,450.84z"/>
	<path class="st5" d="M1368.72,535.01l227.45,144.07c0,0,20.44-7.66,20.44-19.27V341.13c0-3.89-1.09-7.62-3.04-10.83l-14.45,9.59
		L1368.72,535.01z"/>
	<path class="st8" d="M1221.75,466.98l366.66,211.69c5.71,3.3,12.85-0.82,12.85-7.42v-32.02l-387.42-223.61v37.65
		C1213.84,458.93,1216.85,464.16,1221.75,466.98z"/>
	<path class="st7" d="M1213.84,415.63l387.42,223.61V349.47c0-8.06-4.3-15.51-11.29-19.55l-358.79-207.15
		c-7.71-4.45-17.35,1.11-17.35,10.02V415.63z"/>
	<polygon class="st5" points="1238.2,404.24 1578.55,602.64 1578.55,348.87 1238.33,153.48 	"/>
	
		<ellipse transform="matrix(0.7699 -0.6381 0.6381 0.7699 -24.1438 1009.4963)" class="st7" cx="1387.95" cy="538.23" rx="7.34" ry="10.69"/>
	<g>
		<polygon class="st0" points="1340.97,443.13 1332.31,425.69 1339.07,399.03 1328.53,377.26 1332.85,370.56 1309.87,347.56 
			1292.56,317.01 1293.91,309.95 1276.06,280.45 1261.46,276.61 1254.7,254.59 1265.25,254.73 1282.83,271.1 1292.83,274.98 
			1303.65,285.83 1312.3,287.58 1319.6,293.96 1329.61,298.65 1321.5,306.68 1325.01,316.55 1333.4,321.39 1332.04,310.06 
			1336.91,311.79 1340.97,322.25 1343.94,320.18 1351.78,337.14 1339.34,335.91 1329.88,347.75 1317.44,341.65 1316.63,350.65 
			1325.01,353.87 1325.01,358.47 1336.64,369.78 1342.59,369.97 1371.53,404.79 1342.32,432.55 1349.35,447.97 		"/>
		<polygon class="st0" points="1337.97,283.9 1337.97,289.67 1348.25,295.6 1357.08,327.93 1363.21,331.46 1365.38,323.7 
			1368.8,325.68 1372.77,324 1376.74,326.29 1380.52,324.96 1382.14,307.06 1389,307.59 1372.59,293.61 1346.09,280.83 
			1343.92,285.71 		"/>
		<path class="st0" d="M1476.08,439l-4.87-1.01l-3.43,11.54l-5.05-2.91l-5.95-20.56l-11.72-8.21l-3.06-5.92l-2.52-0.2l1.44,5.16
			l8.83,7.08c0,0-3.43,5.05-3.97,4.92c-0.54-0.13-9.56-4.8-9.56-4.8l-8.47-20.4l-1.98,0.3l6.31,19.39l9.74,7l-11.9,9.9l3.25,8
			l-10.82,16.47l-4.15-6l-4.51,1l-5.41-22.59l4.42-1.87l-6.76-15.71l2.34-2.25l-7.99-6.18l-9.74-3.46l-6.97-12.92l3.61-11.62
			l6.37-3.17l13.94,5.17l3.73,7.2l10.58,5.51c0,0,2.88,3.11,3.25,3.32c0.36,0.21,4.09-2.57,4.09-2.57l-9.95-10.67l-8.38-2.95
			l-5.23-8.79l-8.29,1.88l-6.58-4.43l0.27-5.88l6.76,1.56l-3.61-5.24l11.9,0.11l10.1,5.2l8.74-2.34l-7.21-4.16l1.26-8.83
			l-8.11,10.46l-9.74-9.05l12.44-10.31l10.82,3.18l9.01,11.33l2.16,3.77l13.34,3.56l7.66,4.96l-1.62-6.44l3.52-2.48l2.7,2.91
			l-0.36,7.45l6.04,0.42l0.09-5.9l5.41,2.67l-0.27-2.86l11.63,3.92l2.52-1.16l3.7,3.49v1.62l3.97,2.38l0.72,3.48l-5.86-0.23
			l2.61,1.87l3.25,0.16l4.69,3.43l0.99,2.74l5.95,1.09l2.88,3.35l1.08,4.35l5.41,2.16l2.16-1.52l6.85,5.28l1.8,3.81l6.01,2.87
			l1.08,2.91l6.97,3.66l5.17,3.1l8.65,10.53l4.45,3.77l-1.92,2.62l-6.01-6.84l-2.52,0.83l1.32,4.49l-7.93-1.33l-5.41-2.88
			l-3.97,10.57l-1.8-2.72l-1.68-7.82l6.25-3l-4.57-3.72l-2.04,3.39l-8.89-5.74l-6.49,2.62l2.28,3.12l3.85,2.82l-3.85,7.76l-5.89-1
			l-1.44,2.05l0.24,5.91l-3-1.13l-1.32-6.65l-2.16-0.29l-3.97-2.41l3.37,10.36l-2.16,5.36l-9.86-2.45l-0.84,1.68l3.13,6.97
			l-1.2,1.71l-3.25-0.19l-6.61-8.62L1476.08,439z"/>
		<polygon class="st0" points="1495.37,505.03 1496.18,501.35 1493.75,491.84 1501.23,493.18 1506.19,490.18 1514.3,493.34 
			1517.63,500.76 1518.9,495.45 1520.79,497.8 1524.85,508.89 1527.91,515.62 1524.94,526.61 1521.42,525.75 1516.1,519.8 
			1511.59,511.7 1504.83,509.14 1498.25,508.59 		"/>
		<path class="st0" d="M1491.82,472.49v-1.26l-1.32-2.33l0.66-2.02l1.44,2.46c0,0,2.76-2.01,2.94-1.91c0.18,0.1,2.1-0.95,2.1-0.95
			l1.8,3.2l-1.32,1.76l0.96,1.94l-1.86,1.39l-1.2,1.41L1491.82,472.49z"/>
		<path class="st0" d="M1478.78,457.8l4.93,8.01c0,0,2.52,7.41,2.76,7.37s3.07-0.15,3.07-0.15l-1.02-3.29l-1.5-1.05
			c0,0-1.26-1.75-1.2-1.96c0.06-0.21,0.24-1.12,0.24-1.12l-2.7-2.88l-2.28-4.02L1478.78,457.8z"/>
		<polygon class="st0" points="1513.08,485.83 1515.38,484.63 1517.68,487.8 1523.4,493.32 1523.04,494.96 1525.79,499.07 
			1523.94,498.86 1521.15,493.96 1519.84,493.16 1519.44,494.68 1516.51,492.4 1515.88,490.87 1515.2,491.51 1513.89,490.22 
			1514.79,488.93 		"/>
		<polygon class="st0" points="1394.09,361.51 1399.99,362.21 1395.85,355.67 1396.43,349.83 1392.38,347.81 1393.28,354.1 
			1394.76,357.03 		"/>
		<polygon class="st0" points="1387.78,358.31 1392.29,359.74 1392.69,356.01 1391.16,353.75 1389.85,356.25 1387.78,355.06 		"/>
		<polygon class="st0" points="1445.43,358.56 1447.41,362.59 1442,360.07 1443.14,355.08 1449.69,352.85 1457.57,355.53 
			1456.85,357.34 1449.78,355.66 		"/>
		<polygon class="st0" points="1324.81,284.77 1323.91,292.19 1332.11,296.92 1337.97,305.62 1335.09,307.92 1340.05,314.57 
			1347.44,312.53 1340.86,304.54 1342.93,303.26 1333.92,292.91 		"/>
		<path class="st0" d="M1298.22,273.77l0.77,2.77l2.93,0.84l1.13,2.99l-2.84-1.01l2.84,4.52l5.23,0.99l5.27,2.1l-3.61-3.88
			c0,0,0.41-5.72,0.27-5.79c-0.14-0.08-3.2-1.26-3.2-1.26l0.18,3.21l-4.19-4.27L1298.22,273.77z"/>
		<polygon class="st0" points="1292.18,270.28 1294.61,273.96 1297.23,275.16 1297.23,273.19 1301.01,272.75 1298.98,269.86 
			1297.27,269.82 1296.37,267.86 1293.03,266.43 1294.3,268.37 		"/>
	</g>
	<polygon class="st0" points="1508.95,448.66 1510.83,451.07 1518.33,451.31 1519.44,445.58 1522.53,444.6 1522.53,432.34 
		1520.25,431.5 1520.25,441 1515.74,441.76 1515.2,447.7 	"/>
	<polygon class="st0" points="1520.2,526.99 1522.37,532.52 1524.71,528.42 1522.23,528.66 	"/>
	<polygon class="st0" points="1437.67,462.98 1441.19,454.82 1439.43,449.57 1438.67,453.18 1435.42,453.02 1436.05,456.9 
		1434.43,461.1 	"/>
	<path class="st0" d="M1379.74,332.71v3c0,0,3.73,2.81,3.85,2.88c0.12,0.07,4.39-0.47,4.39-0.47l-3.07-5.07l-3.61-0.34l-2.1-2.72
		l-2.22,1.06L1379.74,332.71z"/>
	<polygon class="st0" points="1408.56,322.4 1411.44,329.38 1413.56,331.64 1415.99,328.63 1416.85,331.83 1419.1,333.32 
		1416.85,329.12 1415.54,327.2 1414.46,326.93 1412.84,324.01 1411.89,324.05 1412.43,325.49 1410.99,324.48 1409.55,322.11 	"/>
	<path class="st0" d="M1414.37,324.9l1.4,1.8l1.13,0.43v0.99c0,0,2.7,2.06,2.84,2.09c0.14,0.03,3.06-0.44,3.06-0.44l-1.76-1.92
		l-2.16-0.12l-1.62-1.7l-0.99-0.03l-1.26-1.63L1414.37,324.9z"/>
	<path class="st0" d="M1476.47,359.08l0.12,1.3l-0.63,1.68l2.1,0.4v1.05l5.02,3.77l-0.45-2.18l-0.12-1.48l-2.67-1.06l0.93-0.99
		c0,0-1.53-2.3-1.62-2.32S1476.47,359.08,1476.47,359.08z"/>
	<polygon class="st0" points="1482.6,368.48 1483.62,367.42 1484.25,366.01 1485.75,368.11 1488.1,369.94 1485.35,369.8 	"/>
	<polygon class="st0" points="1326.97,354.44 1329.5,354.23 1333.06,357.37 1336.12,361.89 1339.23,363.05 1340.72,365.45 
		1343.61,367.11 1342.93,368.25 1339.96,365.68 1338.83,364.17 1337.79,364.7 1335.72,363.46 1332.07,358.06 1329.5,355.86 	"/>
	<g>
		<g>
			<g>
				<g>
					<g>
						<path class="st9" d="M1512.06,378.83c-6.79-3.92-12.3-0.87-12.3,5.92c0,2.9,1.52,8.3,4.09,14.01
							c3.45,7.66,8.21,15.55,8.21,15.55s4.71-2.35,8.14-5.99c2.6-2.76,4.16-6.43,4.16-9.36
							C1524.36,392.16,1518.85,382.75,1512.06,378.83z"/>
					</g>
				</g>
			</g>
		</g>
		<g>
			<g>
				<g>
					<g>
						<path class="st9" d="M1300.29,257.31c-6.79-3.92-12.3-0.87-12.3,5.92c0,2.9,1.52,8.3,4.09,14.01
							c3.45,7.66,8.21,15.55,8.21,15.55s4.71-2.35,8.14-5.99c2.6-2.76,4.16-6.43,4.16-9.36
							C1312.59,270.64,1307.08,261.23,1300.29,257.31z"/>
					</g>
				</g>
			</g>
		</g>
		<g>
			<g>
				<g>
					<g>
						<path class="st9" d="M1352.06,357.16c-6.79-3.92-12.3-0.87-12.3,5.92c0,2.9,1.52,8.3,4.09,14.01
							c3.45,7.66,8.21,15.55,8.21,15.55s4.71-2.35,8.14-5.99c2.6-2.76,4.16-6.43,4.16-9.36
							C1364.36,370.49,1358.86,361.08,1352.06,357.16z"/>
					</g>
				</g>
			</g>
		</g>
		<g>
			<g>
				<g>
					<g>
						<path class="st9" d="M1364.36,270.13c-6.79-3.92-12.3-0.87-12.3,5.92c0,2.9,1.52,8.3,4.09,14.01
							c3.45,7.66,8.21,15.55,8.21,15.55s4.71-2.35,8.14-5.99c2.6-2.76,4.16-6.43,4.16-9.36
							C1376.66,283.47,1371.15,274.06,1364.36,270.13z"/>
					</g>
				</g>
			</g>
		</g>
		<g>
			<g>
				<g>
					<g>
						<path class="st9" d="M1392.74,362.07c-6.79-3.92-12.3-0.87-12.3,5.92c0,2.9,1.52,8.3,4.09,14.01
							c3.45,7.66,8.21,15.55,8.21,15.55s4.71-2.35,8.14-5.99c2.6-2.76,4.16-6.43,4.16-9.36
							C1405.04,375.4,1399.53,365.99,1392.74,362.07z"/>
					</g>
				</g>
			</g>
		</g>
		<g>
			<g>
				<g>
					<g>
						<path class="st9" d="M1472.74,366.98c-6.79-3.92-12.3-0.87-12.3,5.92c0,2.9,1.52,8.3,4.09,14.01
							c3.45,7.66,8.21,15.55,8.21,15.55s4.71-2.35,8.14-5.99c2.6-2.76,4.16-6.43,4.16-9.36
							C1485.03,380.31,1479.53,370.9,1472.74,366.98z"/>
					</g>
				</g>
			</g>
		</g>
		<g>
			<g>
				<g>
					<g>
						<path class="st9" d="M1433.41,397.43c-6.79-3.92-12.3-0.87-12.3,5.92c0,2.9,1.52,8.3,4.09,14.01
							c3.45,7.66,8.21,15.55,8.21,15.55s4.71-2.35,8.14-5.99c2.6-2.76,4.16-6.43,4.16-9.36
							C1445.71,410.76,1440.2,401.35,1433.41,397.43z"/>
					</g>
				</g>
			</g>
		</g>
		<g>
			<g>
				<g>
					<g>
						<path class="st9" d="M1425.3,322.15c-6.79-3.92-12.3-0.87-12.3,5.92c0,2.9,1.52,8.3,4.09,14.01
							c3.45,7.66,8.21,15.55,8.21,15.55s4.71-2.35,8.14-5.99c2.6-2.76,4.16-6.43,4.16-9.36
							C1437.6,335.48,1432.1,326.07,1425.3,322.15z"/>
					</g>
				</g>
			</g>
		</g>
		<g>
			<g>
				<g>
					<g>
						<path class="st9" d="M1515.02,469.24c-6.79-3.92-12.3-0.87-12.3,5.92c0,2.9,1.52,8.3,4.09,14.01
							c3.45,7.66,8.21,15.55,8.21,15.55s4.71-2.35,8.14-5.99c2.6-2.76,4.16-6.43,4.16-9.36
							C1527.32,482.57,1521.81,473.16,1515.02,469.24z"/>
					</g>
				</g>
			</g>
		</g>
		<g>
			<g>
				<g>
					<g>
						<path class="st9" d="M1312.39,308.33c-6.79-3.92-12.3-0.87-12.3,5.92c0,2.9,1.52,8.3,4.09,14.01
							c3.45,7.66,8.21,15.55,8.21,15.55s4.71-2.35,8.14-5.99c2.6-2.76,4.16-6.43,4.16-9.36
							C1324.69,321.66,1319.18,312.25,1312.39,308.33z"/>
					</g>
				</g>
			</g>
		</g>
	</g>
	<polygon class="st10" points="1485.68,735.76 1485.68,748.57 1473.37,741.46 1473.37,728.65 	"/>
	<polygon class="st10" points="1490.58,781.49 1490.58,794.3 1473.37,784.37 1473.37,771.56 	"/>
	<path class="st6" d="M1456,722.24l5.93-1.66l0.51-7.3c0,0,7.07-4.17,8.42-4.84c1.84-0.91,4.29-1.08,7.23,0.62l77.7,44.86
		c5.04,2.91,9.12,9.35,9.12,14.39v81.74c0,2.34-1.08,3.67-2.33,4.75c-1.56,1.34-8.9,5.11-8.9,5.11l-75.6-50.86
		c-5.04-2.91-9.12-9.35-9.12-14.39v-53.68l-21.61-13.74L1456,722.24z"/>
	<path class="st7" d="M1447.36,727.23l12.97-3.63v-5.69c0-5.04,4.09-6.77,9.12-3.86l77.7,44.86c5.04,2.91,9.12,9.35,9.12,14.39
		v81.74c0,5.04-4.09,6.77-9.12,3.86l-77.7-44.86c-5.04-2.91-9.12-9.35-9.12-14.39v-53.68L1447.36,727.23z"/>
	<polygon class="st5" points="1519.88,755.43 1544.06,769.39 1544.06,782.2 1519.88,768.24 	"/>
	<polygon class="st5" points="1505.28,747 1505.28,759.81 1473.37,741.39 1473.37,728.58 	"/>
	<polygon class="st5" points="1499.51,765.12 1544.06,790.84 1544.06,803.65 1499.51,777.93 	"/>
	<polygon class="st5" points="1526.79,802.33 1544.06,812.3 1544.06,825.11 1526.79,815.14 	"/>
	<polygon class="st5" points="1513.73,794.78 1513.73,807.59 1473.37,784.3 1473.37,771.49 	"/>
	<polygon class="st5" points="1506.14,811.86 1544.06,833.75 1544.06,846.56 1506.14,824.67 	"/>
	<defs>
		
			<filter id="Adobe_OpacityMaskFilter_00000066483352951069712170000012019926125382700967_" filterUnits="userSpaceOnUse" x="1466.52" y="860.05" width="216.67" height="126.63">
			<feFlood  style="flood-color:white;flood-opacity:1" result="back"/>
			<feBlend  in="SourceGraphic" in2="back" mode="normal"/>
		</filter>
	</defs>
	
		<mask maskUnits="userSpaceOnUse" x="1466.52" y="860.05" width="216.67" height="126.63" id="SVGID_00000070817592408366502990000014500980682754345906_">
		<g style="filter:url(#Adobe_OpacityMaskFilter_00000066483352951069712170000012019926125382700967_);">
			<defs>
				
					<filter id="Adobe_OpacityMaskFilter_00000049941768188744970540000012849331961677403277_" filterUnits="userSpaceOnUse" x="1466.52" y="860.05" width="216.67" height="126.63">
					<feFlood  style="flood-color:white;flood-opacity:1" result="back"/>
					<feBlend  in="SourceGraphic" in2="back" mode="normal"/>
				</filter>
			</defs>
			
				<mask maskUnits="userSpaceOnUse" x="1466.52" y="860.05" width="216.67" height="126.63" id="SVGID_00000070817592408366502990000014500980682754345906_">
				<g style="filter:url(#Adobe_OpacityMaskFilter_00000049941768188744970540000012849331961677403277_);">
				</g>
			</mask>
			
				<linearGradient id="SVGID_00000031168389870526894260000008816289152412942218_" gradientUnits="userSpaceOnUse" x1="1521.767" y1="1004.9156" x2="1625.4031" y2="845.0515">
				<stop  offset="0" style="stop-color:#333333"/>
				<stop  offset="0.2155" style="stop-color:#2C2C2C"/>
				<stop  offset="0.5107" style="stop-color:#1A1A1A"/>
				<stop  offset="0.716" style="stop-color:#121212"/>
				<stop  offset="0.9971" style="stop-color:#000000"/>
			</linearGradient>
			
				<path style="mask:url(#SVGID_00000070817592408366502990000014500980682754345906_);fill:url(#SVGID_00000031168389870526894260000008816289152412942218_);" d="
				M1469.55,938.97l76.34,44.87c6.5,3.82,14.57,3.79,21.04-0.08l116.25-69.56l-93.14-54.15l-59.63,33.81l-27.36-3.39l7.15,14.85
				l-40.57,23C1465.52,930.67,1465.48,936.57,1469.55,938.97z"/>
		</g>
	</mask>
	
		<linearGradient id="SVGID_00000034778058521029028320000005231717975980868287_" gradientUnits="userSpaceOnUse" x1="1528.9432" y1="950.9873" x2="1790.3733" y2="752.8369">
		<stop  offset="0" style="stop-color:#211E39"/>
		<stop  offset="1" style="stop-color:#FFFFFF;stop-opacity:0"/>
	</linearGradient>
	<path style="fill:url(#SVGID_00000034778058521029028320000005231717975980868287_);" d="M1469.55,938.97l76.34,44.87
		c6.5,3.82,14.57,3.79,21.04-0.08l116.25-69.56l-93.14-54.15l-59.63,33.81l-27.36-3.39l7.15,14.85l-40.57,23
		C1465.52,930.67,1465.48,936.57,1469.55,938.97z"/>
	<defs>
		
			<filter id="Adobe_OpacityMaskFilter_00000168838434959166007680000007722677186598579109_" filterUnits="userSpaceOnUse" x="914.8" y="707.37" width="455.76" height="278.37">
			<feFlood  style="flood-color:white;flood-opacity:1" result="back"/>
			<feBlend  in="SourceGraphic" in2="back" mode="normal"/>
		</filter>
	</defs>
	
		<mask maskUnits="userSpaceOnUse" x="914.8" y="707.37" width="455.76" height="278.37" id="SVGID_00000160874134729902008810000015934440613705481345_">
		<g style="filter:url(#Adobe_OpacityMaskFilter_00000168838434959166007680000007722677186598579109_);">
			<defs>
				
					<filter id="Adobe_OpacityMaskFilter_00000153665082580661837350000006583269007178197681_" filterUnits="userSpaceOnUse" x="914.8" y="707.37" width="455.76" height="278.37">
					<feFlood  style="flood-color:white;flood-opacity:1" result="back"/>
					<feBlend  in="SourceGraphic" in2="back" mode="normal"/>
				</filter>
			</defs>
			
				<mask maskUnits="userSpaceOnUse" x="914.8" y="707.37" width="455.76" height="278.37" id="SVGID_00000160874134729902008810000015934440613705481345_">
				<g style="filter:url(#Adobe_OpacityMaskFilter_00000153665082580661837350000006583269007178197681_);">
				</g>
			</mask>
			
				<linearGradient id="SVGID_00000006670442672673480450000018168937911116356028_" gradientUnits="userSpaceOnUse" x1="1040.9443" y1="997.725" x2="1200.6729" y2="760.9177">
				<stop  offset="0" style="stop-color:#424242"/>
				<stop  offset="0.1441" style="stop-color:#3B3B3B"/>
				<stop  offset="0.3572" style="stop-color:#272727"/>
				<stop  offset="0.5107" style="stop-color:#141414"/>
				<stop  offset="0.7499" style="stop-color:#0D0D0D"/>
				<stop  offset="0.9971" style="stop-color:#000000"/>
			</linearGradient>
			
				<path style="mask:url(#SVGID_00000160874134729902008810000015934440613705481345_);fill:url(#SVGID_00000006670442672673480450000018168937911116356028_);" d="
				M1366.34,883.36l-292.69-175.98l-156.49,90.09c-3.09,1.76-3.17,6.18-0.14,8.05l116.9,73.81l-51.16,29.09
				c-24.66,14.77-24.39,38.28,0.84,52.85c25.52,14.73,66.9,14.73,92.42,0c0.36-0.21,20.37-11.71,45.89-26.38l78.61,49.63
				c2.51,1.58,5.69,1.67,8.28,0.22l157.11-85.93C1371.92,895.51,1372.15,886.97,1366.34,883.36z"/>
		</g>
	</mask>
	
		<linearGradient id="SVGID_00000137115210463851454900000015659142260251662998_" gradientUnits="userSpaceOnUse" x1="1040.9443" y1="997.725" x2="1200.6729" y2="760.9177">
		<stop  offset="0" style="stop-color:#211E39"/>
		<stop  offset="0.2425" style="stop-color:#1D1A32;stop-opacity:0.7568"/>
		<stop  offset="0.6021" style="stop-color:#11101E;stop-opacity:0.3961"/>
		<stop  offset="0.9971" style="stop-color:#000000;stop-opacity:0"/>
	</linearGradient>
	<path style="fill:url(#SVGID_00000137115210463851454900000015659142260251662998_);" d="M1366.34,883.36l-292.69-175.98
		l-156.49,90.09c-3.09,1.76-3.17,6.18-0.14,8.05l116.9,73.81l-51.16,29.09c-24.66,14.77-24.39,38.28,0.84,52.85
		c25.52,14.73,66.9,14.73,92.42,0c0.36-0.21,20.37-11.71,45.89-26.38l78.61,49.63c2.51,1.58,5.69,1.67,8.28,0.22l157.11-85.93
		C1371.92,895.51,1372.15,886.97,1366.34,883.36z"/>
	<path class="st6" d="M1326.61,740.39l37.64,150.98c0.62,2.5,3.47,3.71,5.7,2.42l0,0c1.4-0.81,2.15-2.39,1.89-3.98l-26.5-161.35
		L1326.61,740.39z"/>
	<path class="st6" d="M1206.03,804.91l-5.45,176.58c-0.11,3.39,3.55,5.58,6.49,3.88c1.22-0.7,2.02-1.95,2.14-3.35l16.22-177.11
		H1206.03z"/>
	<path class="st6" d="M950.06,650.75l-35.37,149.41c-0.75,3.15,2.64,5.67,5.44,4.05v0c0.81-0.47,1.41-1.22,1.68-2.11L971.94,639
		L950.06,650.75z"/>
	<g>
		<g>
			<polygon class="st8" points="929.23,661.25 1214.49,825.95 1360.32,741.76 1360.32,731.43 1214.49,815.62 929.23,650.93 			"/>
			<polygon class="st8" points="929.23,650.93 1214.49,815.62 1360.32,731.43 1075.06,566.73 			"/>
		</g>
	</g>
	<defs>
		
			<filter id="Adobe_OpacityMaskFilter_00000065034586437534756410000017038138255997389207_" filterUnits="userSpaceOnUse" x="1098.44" y="661.57" width="118.47" height="69.07">
			<feFlood  style="flood-color:white;flood-opacity:1" result="back"/>
			<feBlend  in="SourceGraphic" in2="back" mode="normal"/>
		</filter>
	</defs>
	
		<mask maskUnits="userSpaceOnUse" x="1098.44" y="661.57" width="118.47" height="69.07" id="SVGID_00000132778928382230108990000004174847516478719419_">
		<g style="filter:url(#Adobe_OpacityMaskFilter_00000065034586437534756410000017038138255997389207_);">
			<defs>
				
					<filter id="Adobe_OpacityMaskFilter_00000089573024303839790270000018446058199169191086_" filterUnits="userSpaceOnUse" x="1098.44" y="661.57" width="118.47" height="69.07">
					<feFlood  style="flood-color:white;flood-opacity:1" result="back"/>
					<feBlend  in="SourceGraphic" in2="back" mode="normal"/>
				</filter>
			</defs>
			
				<mask maskUnits="userSpaceOnUse" x="1098.44" y="661.57" width="118.47" height="69.07" id="SVGID_00000132778928382230108990000004174847516478719419_">
				<g style="filter:url(#Adobe_OpacityMaskFilter_00000089573024303839790270000018446058199169191086_);">
				</g>
			</mask>
			
				<linearGradient id="SVGID_00000072992790428133434790000000166496528598217632_" gradientUnits="userSpaceOnUse" x1="1149.0133" y1="709.381" x2="1166.5725" y2="683.3798">
				<stop  offset="0" style="stop-color:#666666"/>
				<stop  offset="0.5302" style="stop-color:#333333"/>
				<stop  offset="1" style="stop-color:#000000"/>
			</linearGradient>
			
				<polygon style="mask:url(#SVGID_00000132778928382230108990000004174847516478719419_);fill:url(#SVGID_00000072992790428133434790000000166496528598217632_);" points="
				1098.44,679.51 1187.33,730.64 1216.91,713.6 1126.69,661.57 			"/>
		</g>
	</mask>
	
		<linearGradient id="SVGID_00000166658465752973232820000010050498773450704300_" gradientUnits="userSpaceOnUse" x1="1149.0133" y1="709.381" x2="1166.5725" y2="683.3798">
		<stop  offset="0" style="stop-color:#4A3DFF"/>
		<stop  offset="0.5302" style="stop-color:#4A3EFF"/>
		<stop  offset="1" style="stop-color:#D2E4FF"/>
	</linearGradient>
	<polygon style="fill:url(#SVGID_00000166658465752973232820000010050498773450704300_);" points="1098.44,679.51 1187.33,730.64 
		1216.91,713.6 1126.69,661.57 	"/>
	<polygon class="st23" points="1068.99,689.28 1163.98,744.12 1199.51,723.61 1199.51,720.49 1104.53,668.83 1068.99,686.16 	"/>
	<polygon class="st5" points="1068.99,686.16 1163.98,741 1199.51,720.49 1104.53,665.71 	"/>
	<g>
		<g>
			<path class="st0" d="M1107.09,672.75c-0.32,0.18-0.89,0.16-1.26-0.05l-4.33-2.45c-0.37-0.21-0.42-0.53-0.1-0.72l1.51-0.87
				c0.32-0.18,0.89-0.16,1.26,0.05l4.33,2.45c0.37,0.21,0.42,0.53,0.1,0.72L1107.09,672.75z"/>
			<path class="st0" d="M1101.5,675.76c-0.32,0.18-0.89,0.16-1.26-0.05l-4.16-2.36c-0.37-0.21-0.42-0.53-0.1-0.72l3.42-1.96
				c0.32-0.18,0.89-0.16,1.26,0.05l4.16,2.36c0.37,0.21,0.42,0.53,0.1,0.72L1101.5,675.76z"/>
			<path class="st0" d="M1099.36,680.64c-0.32,0.18-0.89,0.16-1.26-0.05l-7.36-4.17c-0.37-0.21-0.42-0.53-0.1-0.72l3.42-1.96
				c0.32-0.18,0.89-0.16,1.26,0.05l7.36,4.17c0.37,0.21,0.42,0.53,0.1,0.72L1099.36,680.64z"/>
			<path class="st0" d="M1095.56,684.66c-0.32,0.18-0.89,0.16-1.26-0.05l-8.96-5.08c-0.37-0.21-0.42-0.53-0.1-0.72l3.42-1.96
				c0.32-0.18,0.89-0.16,1.26,0.05l8.96,5.08c0.37,0.21,0.42,0.53,0.1,0.72L1095.56,684.66z"/>
			<path class="st0" d="M1087,685.9c-0.32,0.18-0.89,0.16-1.26-0.05l-5.74-3.25c-0.37-0.21-0.42-0.53-0.1-0.72l3.42-1.96
				c0.32-0.18,0.89-0.16,1.26,0.05l5.74,3.25c0.37,0.21,0.42,0.53,0.1,0.72L1087,685.9z"/>
			<path class="st0" d="M1079.26,688.52c-0.32,0.18-0.89,0.16-1.26-0.05l-4.15-2.35c-0.37-0.21-0.42-0.53-0.1-0.72l4.23-2.42
				c0.32-0.18,0.89-0.16,1.26,0.05l4.15,2.35c0.37,0.21,0.42,0.53,0.1,0.72L1079.26,688.52z"/>
			<path class="st0" d="M1085.66,692.14c-0.32,0.18-0.89,0.16-1.26-0.05l-4.15-2.35c-0.37-0.21-0.42-0.53-0.1-0.72l4.23-2.42
				c0.32-0.18,0.89-0.16,1.26,0.05l4.15,2.35c0.37,0.21,0.42,0.53,0.1,0.72L1085.66,692.14z"/>
			<path class="st0" d="M1092.09,695.79c-0.32,0.18-0.89,0.16-1.26-0.05l-4.15-2.35c-0.37-0.21-0.42-0.53-0.1-0.72l4.23-2.42
				c0.32-0.18,0.89-0.16,1.26,0.05l4.15,2.35c0.37,0.21,0.42,0.53,0.1,0.72L1092.09,695.79z"/>
			<path class="st0" d="M1140.03,722.94c-0.32,0.18-0.89,0.16-1.26-0.05l-5.75-3.26c-0.37-0.21-0.42-0.53-0.1-0.72l4.23-2.42
				c0.32-0.18,0.89-0.16,1.26,0.05l5.75,3.26c0.37,0.21,0.42,0.53,0.1,0.72L1140.03,722.94z"/>
			<path class="st0" d="M1146.45,726.58c-0.32,0.18-0.89,0.16-1.26-0.05l-4.16-2.35c-0.37-0.21-0.42-0.53-0.1-0.72l4.23-2.42
				c0.32-0.18,0.89-0.16,1.26,0.05l4.16,2.35c0.37,0.21,0.42,0.53,0.1,0.72L1146.45,726.58z"/>
			<path class="st0" d="M1159.29,733.85c-0.32,0.18-0.89,0.16-1.26-0.05l-4.16-2.35c-0.37-0.21-0.42-0.53-0.1-0.72l4.23-2.42
				c0.32-0.18,0.89-0.16,1.26,0.05l4.16,2.35c0.37,0.21,0.42,0.53,0.1,0.72L1159.29,733.85z"/>
			<path class="st0" d="M1152.86,730.22c-0.32,0.18-0.89,0.16-1.26-0.05l-4.15-2.35c-0.37-0.21-0.42-0.53-0.1-0.72l1.55-0.89
				c0.32-0.18,0.89-0.16,1.26,0.05l4.15,2.35c0.37,0.21,0.42,0.53,0.1,0.72L1152.86,730.22z"/>
			<path class="st0" d="M1165.67,737.48c-0.32,0.18-0.89,0.16-1.26-0.05l-4.15-2.35c-0.37-0.21-0.42-0.53-0.1-0.72l1.55-0.89
				c0.32-0.18,0.89-0.16,1.26,0.05l4.15,2.35c0.37,0.21,0.42,0.53,0.1,0.72L1165.67,737.48z"/>
			<path class="st0" d="M1100.09,700.32c-0.32,0.18-0.89,0.16-1.26-0.05l-5.76-3.26c-0.37-0.21-0.42-0.53-0.1-0.72l4.23-2.42
				c0.32-0.18,0.89-0.16,1.26,0.05l5.76,3.26c0.37,0.21,0.42,0.53,0.1,0.72L1100.09,700.32z"/>
			<path class="st0" d="M1132.04,718.41c-0.32,0.18-0.89,0.16-1.26-0.05l-29.71-16.83c-0.37-0.21-0.42-0.53-0.1-0.72l4.23-2.42
				c0.32-0.18,0.89-0.16,1.26,0.05l29.71,16.83c0.37,0.21,0.42,0.53,0.1,0.72L1132.04,718.41z"/>
			<path class="st0" d="M1107.91,679.39c-0.32,0.18-0.89,0.16-1.26-0.05l-4.16-2.36c-0.37-0.21-0.42-0.53-0.1-0.72l3.42-1.96
				c0.32-0.18,0.89-0.16,1.26,0.05l4.16,2.36c0.37,0.21,0.42,0.53,0.1,0.72L1107.91,679.39z"/>
			<path class="st0" d="M1114.32,683.02c-0.32,0.18-0.89,0.16-1.26-0.05l-4.16-2.36c-0.37-0.21-0.42-0.53-0.1-0.72l3.42-1.96
				c0.32-0.18,0.89-0.16,1.26,0.05l4.16,2.36c0.37,0.21,0.42,0.53,0.1,0.72L1114.32,683.02z"/>
			<path class="st0" d="M1120.64,686.6c-0.32,0.18-0.89,0.16-1.26-0.05l-4.16-2.36c-0.37-0.21-0.42-0.53-0.1-0.72l3.42-1.96
				c0.32-0.18,0.89-0.16,1.26,0.05l4.16,2.36c0.37,0.21,0.42,0.53,0.1,0.72L1120.64,686.6z"/>
			<path class="st0" d="M1127.05,690.23c-0.32,0.18-0.89,0.16-1.26-0.05l-4.16-2.36c-0.37-0.21-0.42-0.53-0.1-0.72l3.42-1.96
				c0.32-0.18,0.89-0.16,1.26,0.05l4.16,2.36c0.37,0.21,0.42,0.53,0.1,0.72L1127.05,690.23z"/>
			<path class="st0" d="M1133.44,693.85c-0.32,0.18-0.89,0.16-1.26-0.05l-4.16-2.36c-0.37-0.21-0.42-0.53-0.1-0.72l3.42-1.96
				c0.32-0.18,0.89-0.16,1.26,0.05l4.16,2.36c0.37,0.21,0.42,0.53,0.1,0.72L1133.44,693.85z"/>
			<path class="st0" d="M1139.85,697.48c-0.32,0.18-0.89,0.16-1.26-0.05l-4.16-2.36c-0.37-0.21-0.42-0.53-0.1-0.72l3.42-1.96
				c0.32-0.18,0.89-0.16,1.26,0.05l4.16,2.36c0.37,0.21,0.42,0.53,0.1,0.72L1139.85,697.48z"/>
			<path class="st0" d="M1146.26,701.11c-0.32,0.18-0.89,0.16-1.26-0.05l-4.16-2.36c-0.37-0.21-0.42-0.53-0.1-0.72l3.42-1.96
				c0.32-0.18,0.89-0.16,1.26,0.05l4.16,2.36c0.37,0.21,0.42,0.53,0.1,0.72L1146.26,701.11z"/>
			<path class="st0" d="M1152.58,704.69c-0.32,0.18-0.89,0.16-1.26-0.05l-4.16-2.36c-0.37-0.21-0.42-0.53-0.1-0.72l3.42-1.96
				c0.32-0.18,0.89-0.16,1.26,0.05l4.16,2.36c0.37,0.21,0.42,0.53,0.1,0.72L1152.58,704.69z"/>
			<path class="st0" d="M1158.99,708.32c-0.32,0.18-0.89,0.16-1.26-0.05l-4.16-2.36c-0.37-0.21-0.42-0.53-0.1-0.72l3.42-1.96
				c0.32-0.18,0.89-0.16,1.26,0.05l4.16,2.36c0.37,0.21,0.42,0.53,0.1,0.72L1158.99,708.32z"/>
			<path class="st0" d="M1165.51,712.01c-0.32,0.18-0.89,0.16-1.26-0.05l-4.16-2.36c-0.37-0.21-0.42-0.53-0.1-0.72l3.42-1.96
				c0.32-0.18,0.89-0.16,1.26,0.05l4.16,2.36c0.37,0.21,0.42,0.53,0.1,0.72L1165.51,712.01z"/>
			<path class="st0" d="M1171.83,715.59c-0.32,0.18-0.89,0.16-1.26-0.05l-4.16-2.36c-0.37-0.21-0.42-0.53-0.1-0.72l3.42-1.96
				c0.32-0.18,0.89-0.16,1.26,0.05l4.16,2.36c0.37,0.21,0.42,0.53,0.1,0.72L1171.83,715.59z"/>
			<path class="st0" d="M1105.77,684.27c-0.32,0.18-0.89,0.16-1.26-0.05l-4.16-2.36c-0.37-0.21-0.42-0.53-0.1-0.72l3.42-1.96
				c0.32-0.18,0.89-0.16,1.26,0.05l4.16,2.36c0.37,0.21,0.42,0.53,0.1,0.72L1105.77,684.27z"/>
			<path class="st0" d="M1112.19,687.9c-0.32,0.18-0.89,0.16-1.26-0.05l-4.16-2.36c-0.37-0.21-0.42-0.53-0.1-0.72l3.42-1.96
				c0.32-0.18,0.89-0.16,1.26,0.05l4.16,2.36c0.37,0.21,0.42,0.53,0.1,0.72L1112.19,687.9z"/>
			<path class="st0" d="M1118.51,691.49c-0.32,0.18-0.89,0.16-1.26-0.05l-4.16-2.36c-0.37-0.21-0.42-0.53-0.1-0.72l3.42-1.96
				c0.32-0.18,0.89-0.16,1.26,0.05l4.16,2.36c0.37,0.21,0.42,0.53,0.1,0.72L1118.51,691.49z"/>
			<path class="st0" d="M1124.92,695.12c-0.32,0.18-0.89,0.16-1.26-0.05l-4.16-2.36c-0.37-0.21-0.42-0.53-0.1-0.72l3.42-1.96
				c0.32-0.18,0.89-0.16,1.26,0.05l4.16,2.36c0.37,0.21,0.42,0.53,0.1,0.72L1124.92,695.12z"/>
			<path class="st0" d="M1131.31,698.73c-0.32,0.18-0.89,0.16-1.26-0.05l-4.16-2.36c-0.37-0.21-0.42-0.53-0.1-0.72l3.42-1.96
				c0.32-0.18,0.89-0.16,1.26,0.05l4.16,2.36c0.37,0.21,0.42,0.53,0.1,0.72L1131.31,698.73z"/>
			<path class="st0" d="M1137.71,702.36c-0.32,0.18-0.89,0.16-1.26-0.05l-4.16-2.36c-0.37-0.21-0.42-0.53-0.1-0.72l3.42-1.96
				c0.32-0.18,0.89-0.16,1.26,0.05l4.16,2.36c0.37,0.21,0.42,0.53,0.1,0.72L1137.71,702.36z"/>
			<path class="st0" d="M1144.13,705.99c-0.32,0.18-0.89,0.16-1.26-0.05l-4.16-2.36c-0.37-0.21-0.42-0.53-0.1-0.72l3.42-1.96
				c0.32-0.18,0.89-0.16,1.26,0.05l4.16,2.36c0.37,0.21,0.42,0.53,0.1,0.72L1144.13,705.99z"/>
			<path class="st0" d="M1150.45,709.58c-0.32,0.18-0.89,0.16-1.26-0.05l-4.16-2.36c-0.37-0.21-0.42-0.53-0.1-0.72l3.42-1.96
				c0.32-0.18,0.89-0.16,1.26,0.05l4.16,2.36c0.37,0.21,0.42,0.53,0.1,0.72L1150.45,709.58z"/>
			<path class="st0" d="M1156.86,713.21c-0.32,0.18-0.89,0.16-1.26-0.05l-4.16-2.36c-0.37-0.21-0.42-0.53-0.1-0.72l3.42-1.96
				c0.32-0.18,0.89-0.16,1.26,0.05l4.16,2.36c0.37,0.21,0.42,0.53,0.1,0.72L1156.86,713.21z"/>
			<path class="st0" d="M1163.37,716.9c-0.32,0.18-0.89,0.16-1.26-0.05l-4.16-2.36c-0.37-0.21-0.42-0.53-0.1-0.72l3.42-1.96
				c0.32-0.18,0.89-0.16,1.26,0.05l4.16,2.36c0.37,0.21,0.42,0.53,0.1,0.72L1163.37,716.9z"/>
			<path class="st0" d="M1169.7,720.48c-0.32,0.18-0.89,0.16-1.26-0.05l-4.16-2.36c-0.37-0.21-0.42-0.53-0.1-0.72l3.42-1.96
				c0.32-0.18,0.89-0.16,1.26,0.05l4.16,2.36c0.37,0.21,0.42,0.53,0.1,0.72L1169.7,720.48z"/>
			<path class="st0" d="M1176.16,724.14c-0.32,0.18-0.89,0.16-1.26-0.05l-4.16-2.36c-0.37-0.21-0.42-0.53-0.1-0.72l3.42-1.96
				c0.32-0.18,0.89-0.16,1.26,0.05l4.16,2.36c0.37,0.21,0.42,0.53,0.1,0.72L1176.16,724.14z"/>
			<path class="st0" d="M1101.96,688.28c-0.32,0.18-0.89,0.16-1.26-0.05l-4.16-2.36c-0.37-0.21-0.42-0.53-0.1-0.72l3.42-1.96
				c0.32-0.18,0.89-0.16,1.26,0.05l4.16,2.36c0.37,0.21,0.42,0.53,0.1,0.72L1101.96,688.28z"/>
			<path class="st0" d="M1108.37,691.92c-0.32,0.18-0.89,0.16-1.26-0.05l-4.16-2.36c-0.37-0.21-0.42-0.53-0.1-0.72l3.42-1.96
				c0.32-0.18,0.89-0.16,1.26,0.05l4.16,2.36c0.37,0.21,0.42,0.53,0.1,0.72L1108.37,691.92z"/>
			<path class="st0" d="M1114.7,695.5c-0.32,0.18-0.89,0.16-1.26-0.05l-4.16-2.36c-0.37-0.21-0.42-0.53-0.1-0.72l3.42-1.96
				c0.32-0.18,0.89-0.16,1.26,0.05l4.16,2.36c0.37,0.21,0.42,0.53,0.1,0.72L1114.7,695.5z"/>
			<path class="st0" d="M1121.11,699.13c-0.32,0.18-0.89,0.16-1.26-0.05l-4.16-2.36c-0.37-0.21-0.42-0.53-0.1-0.72l3.42-1.96
				c0.32-0.18,0.89-0.16,1.26,0.05l4.16,2.36c0.37,0.21,0.42,0.53,0.1,0.72L1121.11,699.13z"/>
			<path class="st0" d="M1127.5,702.75c-0.32,0.18-0.89,0.16-1.26-0.05l-4.16-2.36c-0.37-0.21-0.42-0.53-0.1-0.72l3.42-1.96
				c0.32-0.18,0.89-0.16,1.26,0.05l4.16,2.36c0.37,0.21,0.42,0.53,0.1,0.72L1127.5,702.75z"/>
			<path class="st0" d="M1133.9,706.38c-0.32,0.18-0.89,0.16-1.26-0.05l-4.16-2.36c-0.37-0.21-0.42-0.53-0.1-0.72l3.42-1.96
				c0.32-0.18,0.89-0.16,1.26,0.05l4.16,2.36c0.37,0.21,0.42,0.53,0.1,0.72L1133.9,706.38z"/>
			<path class="st0" d="M1140.31,710.01c-0.32,0.18-0.89,0.16-1.26-0.05l-4.16-2.36c-0.37-0.21-0.42-0.53-0.1-0.72l3.42-1.96
				c0.32-0.18,0.89-0.16,1.26,0.05l4.16,2.36c0.37,0.21,0.42,0.53,0.1,0.72L1140.31,710.01z"/>
			<path class="st0" d="M1146.64,713.59c-0.32,0.18-0.89,0.16-1.26-0.05l-4.16-2.36c-0.37-0.21-0.42-0.53-0.1-0.72l3.42-1.96
				c0.32-0.18,0.89-0.16,1.26,0.05l4.16,2.36c0.37,0.21,0.42,0.53,0.1,0.72L1146.64,713.59z"/>
			<path class="st0" d="M1153.05,717.22c-0.32,0.18-0.89,0.16-1.26-0.05l-4.16-2.36c-0.37-0.21-0.42-0.53-0.1-0.72l3.42-1.96
				c0.32-0.18,0.89-0.16,1.26,0.05l4.16,2.36c0.37,0.21,0.42,0.53,0.1,0.72L1153.05,717.22z"/>
			<path class="st0" d="M1159.56,720.91c-0.32,0.18-0.89,0.16-1.26-0.05l-4.16-2.36c-0.37-0.21-0.42-0.53-0.1-0.72l3.42-1.96
				c0.32-0.18,0.89-0.16,1.26,0.05l4.16,2.36c0.37,0.21,0.42,0.53,0.1,0.72L1159.56,720.91z"/>
			<path class="st0" d="M1165.89,724.49c-0.32,0.18-0.89,0.16-1.26-0.05l-4.16-2.36c-0.37-0.21-0.42-0.53-0.1-0.72l3.42-1.96
				c0.32-0.18,0.89-0.16,1.26,0.05l4.16,2.36c0.37,0.21,0.42,0.53,0.1,0.72L1165.89,724.49z"/>
			<path class="st0" d="M1093.41,689.53c-0.32,0.18-0.89,0.16-1.26-0.05l-4.16-2.36c-0.37-0.21-0.42-0.53-0.1-0.72l3.42-1.96
				c0.32-0.18,0.89-0.16,1.26,0.05l4.16,2.36c0.37,0.21,0.42,0.53,0.1,0.72L1093.41,689.53z"/>
			<path class="st0" d="M1099.82,693.16c-0.32,0.18-0.89,0.16-1.26-0.05l-4.16-2.36c-0.37-0.21-0.42-0.53-0.1-0.72l3.42-1.96
				c0.32-0.18,0.89-0.16,1.26,0.05l4.16,2.36c0.37,0.21,0.42,0.53,0.1,0.72L1099.82,693.16z"/>
			<path class="st0" d="M1106.15,696.74c-0.32,0.18-0.89,0.16-1.26-0.05l-4.16-2.36c-0.37-0.21-0.42-0.53-0.1-0.72l3.42-1.96
				c0.32-0.18,0.89-0.16,1.26,0.05l4.16,2.36c0.37,0.21,0.42,0.53,0.1,0.72L1106.15,696.74z"/>
			<path class="st0" d="M1112.56,700.37c-0.32,0.18-0.89,0.16-1.26-0.05l-4.16-2.36c-0.37-0.21-0.42-0.53-0.1-0.72l3.42-1.96
				c0.32-0.18,0.89-0.16,1.26,0.05l4.16,2.36c0.37,0.21,0.42,0.53,0.1,0.72L1112.56,700.37z"/>
			<path class="st0" d="M1118.95,703.99c-0.32,0.18-0.89,0.16-1.26-0.05l-4.16-2.36c-0.37-0.21-0.42-0.53-0.1-0.72l3.42-1.96
				c0.32-0.18,0.89-0.16,1.26,0.05l4.16,2.36c0.37,0.21,0.42,0.53,0.1,0.72L1118.95,703.99z"/>
			<path class="st0" d="M1125.35,707.62c-0.32,0.18-0.89,0.16-1.26-0.05l-4.16-2.36c-0.37-0.21-0.42-0.53-0.1-0.72l3.42-1.96
				c0.32-0.18,0.89-0.16,1.26,0.05l4.16,2.36c0.37,0.21,0.42,0.53,0.1,0.72L1125.35,707.62z"/>
			<path class="st0" d="M1131.76,711.25c-0.32,0.18-0.89,0.16-1.26-0.05l-4.16-2.36c-0.37-0.21-0.42-0.53-0.1-0.72l3.42-1.96
				c0.32-0.18,0.89-0.16,1.26,0.05l4.16,2.36c0.37,0.21,0.42,0.53,0.1,0.72L1131.76,711.25z"/>
			<path class="st0" d="M1138.09,714.83c-0.32,0.18-0.89,0.16-1.26-0.05l-4.16-2.36c-0.37-0.21-0.42-0.53-0.1-0.72l3.42-1.96
				c0.32-0.18,0.89-0.16,1.26,0.05l4.16,2.36c0.37,0.21,0.42,0.53,0.1,0.72L1138.09,714.83z"/>
			<path class="st0" d="M1144.5,718.46c-0.32,0.18-0.89,0.16-1.26-0.05l-4.16-2.36c-0.37-0.21-0.42-0.53-0.1-0.72l3.42-1.96
				c0.32-0.18,0.89-0.16,1.26,0.05l4.16,2.36c0.37,0.21,0.42,0.53,0.1,0.72L1144.5,718.46z"/>
			<path class="st0" d="M1151.01,722.15c-0.32,0.18-0.89,0.16-1.26-0.05l-4.16-2.36c-0.37-0.21-0.42-0.53-0.1-0.72l3.42-1.96
				c0.32-0.18,0.89-0.16,1.26,0.05l4.16,2.36c0.37,0.21,0.42,0.53,0.1,0.72L1151.01,722.15z"/>
			<path class="st0" d="M1157.34,725.73c-0.32,0.18-0.89,0.16-1.26-0.05l-4.16-2.36c-0.37-0.21-0.42-0.53-0.1-0.72l3.42-1.96
				c0.32-0.18,0.89-0.16,1.26,0.05l4.16,2.36c0.37,0.21,0.42,0.53,0.1,0.72L1157.34,725.73z"/>
			<path class="st0" d="M1171.84,733.95c-0.32,0.18-0.89,0.16-1.26-0.05l-12.18-6.9c-0.37-0.21-0.42-0.53-0.1-0.72l3.42-1.96
				c0.32-0.18,0.89-0.16,1.26,0.05l12.18,6.9c0.37,0.21,0.42,0.53,0.1,0.72L1171.84,733.95z"/>
			<path class="st0" d="M1172.35,728.15c-0.32,0.18-0.89,0.16-1.26-0.05l-4.16-2.36c-0.37-0.21-0.42-0.53-0.1-0.72l3.42-1.96
				c0.32-0.18,0.89-0.16,1.26,0.05l4.16,2.36c0.37,0.21,0.42,0.53,0.1,0.72L1172.35,728.15z"/>
			<path class="st0" d="M1178.24,719.23c-0.32,0.18-0.89,0.16-1.26-0.05l-4.16-2.36c-0.37-0.21-0.42-0.53-0.1-0.72l3.42-1.96
				c0.32-0.18,0.89-0.16,1.26,0.05l4.16,2.36c0.37,0.21,0.42,0.53,0.1,0.72L1178.24,719.23z"/>
			<path class="st0" d="M1185.87,725.12l-4.16-2.36c-0.37-0.21-0.94-0.23-1.26-0.05l-3.42,1.96c-0.32,0.18-0.28,0.51,0.1,0.72
				l0.93,0.53l-4.78,2.74c-0.32,0.18-0.28,0.51,0.1,0.72l2.55,1.44c0.37,0.21,0.94,0.23,1.26,0.05l5.36-3.07l0.16-0.09l3.26-1.87
				C1186.28,725.65,1186.24,725.33,1185.87,725.12z"/>
			<path class="st0" d="M1187.92,724.71c-0.32,0.18-0.89,0.16-1.26-0.05l-7.35-4.16c-0.37-0.21-0.42-0.53-0.1-0.72l3.42-1.96
				c0.32-0.18,0.89-0.16,1.26,0.05l7.35,4.16c0.37,0.21,0.42,0.53,0.1,0.72L1187.92,724.71z"/>
			<path class="st0" d="M1113.68,676.48c-0.32,0.18-0.89,0.16-1.26-0.05l-4.33-2.45c-0.37-0.21-0.42-0.53-0.1-0.72l1.51-0.87
				c0.32-0.18,0.89-0.16,1.26,0.05l4.33,2.45c0.37,0.21,0.42,0.53,0.1,0.72L1113.68,676.48z"/>
			<path class="st0" d="M1120.35,680.26c-0.32,0.18-0.89,0.16-1.26-0.05l-4.33-2.45c-0.37-0.21-0.42-0.53-0.1-0.72l1.51-0.87
				c0.32-0.18,0.89-0.16,1.26,0.05l4.33,2.45c0.37,0.21,0.42,0.53,0.1,0.72L1120.35,680.26z"/>
			<path class="st0" d="M1126.93,683.99c-0.32,0.18-0.89,0.16-1.26-0.05l-4.33-2.45c-0.37-0.21-0.42-0.53-0.1-0.72l1.51-0.87
				c0.32-0.18,0.89-0.16,1.26,0.05l4.33,2.45c0.37,0.21,0.42,0.53,0.1,0.72L1126.93,683.99z"/>
			<path class="st0" d="M1133.61,687.77c-0.32,0.18-0.89,0.16-1.26-0.05l-4.33-2.45c-0.37-0.21-0.42-0.53-0.1-0.72l1.51-0.87
				c0.32-0.18,0.89-0.16,1.26,0.05l4.33,2.45c0.37,0.21,0.42,0.53,0.1,0.72L1133.61,687.77z"/>
			<path class="st0" d="M1140.2,691.5c-0.32,0.18-0.89,0.16-1.26-0.05l-4.33-2.45c-0.37-0.21-0.42-0.53-0.1-0.72l1.51-0.87
				c0.32-0.18,0.89-0.16,1.26,0.05l4.33,2.45c0.37,0.21,0.42,0.53,0.1,0.72L1140.2,691.5z"/>
			<path class="st0" d="M1146.87,695.29c-0.32,0.18-0.89,0.16-1.26-0.05l-4.33-2.45c-0.37-0.21-0.42-0.53-0.1-0.72l1.51-0.87
				c0.32-0.18,0.89-0.16,1.26,0.05l4.33,2.45c0.37,0.21,0.42,0.53,0.1,0.72L1146.87,695.29z"/>
			<path class="st0" d="M1153.45,699.01c-0.32,0.18-0.89,0.16-1.26-0.05l-4.33-2.45c-0.37-0.21-0.42-0.53-0.1-0.72l1.51-0.87
				c0.32-0.18,0.89-0.16,1.26,0.05l4.33,2.45c0.37,0.21,0.42,0.53,0.1,0.72L1153.45,699.01z"/>
			<path class="st0" d="M1160.14,702.8c-0.32,0.18-0.89,0.16-1.26-0.05l-4.33-2.45c-0.37-0.21-0.42-0.53-0.1-0.72l1.51-0.87
				c0.32-0.18,0.89-0.16,1.26,0.05l4.33,2.45c0.37,0.21,0.42,0.53,0.1,0.72L1160.14,702.8z"/>
			<path class="st0" d="M1166.73,706.53c-0.32,0.18-0.89,0.16-1.26-0.05l-4.33-2.45c-0.37-0.21-0.42-0.53-0.1-0.72l1.51-0.87
				c0.32-0.18,0.89-0.16,1.26,0.05l4.33,2.45c0.37,0.21,0.42,0.53,0.1,0.72L1166.73,706.53z"/>
			<path class="st0" d="M1173.4,710.31c-0.32,0.18-0.89,0.16-1.26-0.05l-4.33-2.45c-0.37-0.21-0.42-0.53-0.1-0.72l1.51-0.87
				c0.32-0.18,0.89-0.16,1.26,0.05l4.33,2.45c0.37,0.21,0.42,0.53,0.1,0.72L1173.4,710.31z"/>
			<path class="st0" d="M1179.98,714.04c-0.32,0.18-0.89,0.16-1.26-0.05l-4.33-2.45c-0.37-0.21-0.42-0.53-0.1-0.72l1.51-0.87
				c0.32-0.18,0.89-0.16,1.26,0.05l4.33,2.45c0.37,0.21,0.42,0.53,0.1,0.72L1179.98,714.04z"/>
			<path class="st0" d="M1186.65,717.82c-0.32,0.18-0.89,0.16-1.26-0.05l-4.33-2.45c-0.37-0.21-0.42-0.53-0.1-0.72l1.51-0.87
				c0.32-0.18,0.89-0.16,1.26,0.05l4.33,2.45c0.37,0.21,0.42,0.53,0.1,0.72L1186.65,717.82z"/>
			<path class="st0" d="M1193.23,721.54c-0.32,0.18-0.89,0.16-1.26-0.05l-4.33-2.45c-0.37-0.21-0.42-0.53-0.1-0.72l1.51-0.87
				c0.32-0.18,0.89-0.16,1.26,0.05l4.33,2.45c0.37,0.21,0.42,0.53,0.1,0.72L1193.23,721.54z"/>
		</g>
	</g>
	<path class="st24" d="M1115.46,839.04c-1.68-9.65-48.02-35.18-65.01-40.68c-13.69-4.43-40,8.22-48.88,17.3
		c-16.97,17.35,33.78,48.97,48.46,53.17S1117.14,848.69,1115.46,839.04z"/>
	<path class="st25" d="M1049.76,799.67c0,0,4.51-1.72,11.54-3.41c8.83-2.12,20.91-3.71,27.02-0.93
		c11.64,5.29,10.71,13.76,10.71,13.76s8.76-3.35,17.3,3.01c6.02,4.48,8.35,8.52,8.35,17.81c0,9.29,0,9.42,0,9.42l-74.92,28.06
		V799.67z"/>
	<path class="st26" d="M1060.13,888.06c0,0-2.89,18.98,10.48,14.89c14.24-4.36,35.7-21.52,31.95-27
		c-3.75-5.48-22.92,1.51-27.43,3.45C1070.49,881.41,1060.61,884.27,1060.13,888.06z"/>
	<path class="st26" d="M1108.31,908.03c0,0-3.98,20.09,10.49,15.28c14.63-4.86,37.65-19.78,31.32-27.23
		c-4.45-5.24-21.62,0.97-26.28,2.99C1119.04,901.14,1108.81,904.1,1108.31,908.03z"/>
	<path class="st7" d="M1108.45,897.43l0.16,8.92c0.06,3.63,3.06,6.52,6.68,6.45c3.63-0.06,6.52-3.06,6.45-6.68l-0.16-8.92
		L1108.45,897.43z"/>
	<path class="st7" d="M1061.9,876.88l-0.35,8.8c-0.14,3.58,2.64,6.6,6.22,6.74c3.58,0.14,6.59-2.64,6.74-6.22l0.35-8.8
		L1061.9,876.88z"/>
	<path class="st25" d="M1064.58,804.26l-31.01-6.81l25.43,84.87c0,0,7.13,6.22,18.03,1.78l11.62-42.69l16.56,60.02
		c0,0,7.03,7.56,17.93-1l0.87-76.22L1064.58,804.26z"/>
	<path class="st6" d="M1041.78,871.9l5.57,102.32c0.12,2.18,1.92,3.89,4.1,3.89l0,0c2.21,0,4.02-1.74,4.11-3.95l4.02-102.25H1041.78
		z"/>
	<path class="st6" d="M992.32,844.2c-0.48,0.73-20.93,67.2-25.93,83.46c-0.65,2.13,0.54,4.38,2.67,5.03l0,0
		c1.93,0.59,4.01-0.33,4.85-2.17l34.95-76.03L992.32,844.2z"/>
	<path class="st6" d="M1089.81,866.34l30.52,69.53c0.8,1.82,2.93,2.64,4.75,1.82l0,0c1.62-0.74,2.45-2.55,1.95-4.26l-22.48-76.26
		L1089.81,866.34z"/>
	<path class="st27" d="M994.18,700.69l23.18,35.63c3.43,5.02,10.37,6.25,15.5,2.75c5.14-3.5,6.52-10.42,3.1-15.44l-25.03-36.88
		C1004.22,682.42,990.75,695.67,994.18,700.69z"/>
	<path class="st28" d="M1078.47,685.87c7.32-4.37,13.79-5.36,18.65,0.08c4.07,4.55,2.74,13.9-4.58,18.27
		c-4.22,2.52-7.23,2.54-10.97,1.78l-13.51,7.92l-7-11.73l11.91-7.11C1074.07,691.42,1074.25,688.39,1078.47,685.87z"/>
	<path class="st25" d="M1031.76,739.78l46.93-28.54c0.77-12.13-10.26-16.38-10.26-16.38l-47.11,24.97
		c-5.51,2.88-7.64,9.69-4.76,15.2c0.55,1.06,1.25,1.99,2.06,2.79C1022.01,741.17,1027.31,742.11,1031.76,739.78z"/>
	<polygon class="st29" points="1057.5,869.11 1058.17,824.95 1015.15,795.22 991.31,803.9 991.49,838.79 	"/>
	<path class="st30" d="M1058.17,708.92l-34.88-19.88c-14.51-8.27-31.81-2.01-31.81,15.97l-0.18,98.89c0,0,13.41,34.15,66.87,21.05
		V708.92z"/>
	<polygon class="st25" points="1058.17,731.7 1045.51,724.02 1058.17,767.48 	"/>
	<path class="st30" d="M1049.11,708.23c-6.17,0.55-7.9,11.55-4.48,16.57l33.33,49.08c3.43,5.02,10.37,6.25,15.5,2.75
		s6.52-10.42,3.1-15.44l-30.37-44.74c-1.94-2.85-4.72-6.03-8.02-7.53C1055.66,707.77,1053.03,707.88,1049.11,708.23z"/>
	<path class="st28" d="M1139.07,723.42c7.32-4.37,13.79-5.36,18.65,0.08c4.07,4.55,2.74,13.9-4.58,18.27
		c-4.22,2.52-7.23,2.54-10.97,1.78l-13.51,7.92l-7-11.73l11.91-7.11C1134.67,728.98,1134.85,725.95,1139.07,723.42z"/>
	<path class="st30" d="M1092.36,777.34l46.93-28.54c0.77-12.13-10.26-16.38-10.26-16.38l-47.11,24.97
		c-5.51,2.88-7.64,9.69-4.76,15.2c0.55,1.06,1.25,1.99,2.06,2.79C1082.62,778.73,1087.91,779.67,1092.36,777.34z"/>
	<polygon class="st31" points="1040.3,676.11 1019.99,676.11 1019.99,692.26 1028.36,696.69 1040.3,699.44 	"/>
	<path class="st31" d="M1035.63,649.47h13.72c6.16,0,11.16,5,11.16,11.16v18.08c0,12.6-14.01,20.14-24.53,13.2l-12.22-8.21
		c-5.92-4.74-7.24-8.19-7.33-14.73C1016.27,658.22,1024.93,649.47,1035.63,649.47z"/>
	<path class="st32" d="M1063.77,652.53c1.99-21.04-22.25-26.29-40.23-16.85c-20.63,10.83-12.19,40.84-1.27,46.74
		c13.22,7.14,15.94-13.93,22.87-18.38C1051.78,659.77,1062.34,667.57,1063.77,652.53z"/>
	<g>
		<path class="st33" d="M1041.11,701.98c-0.04,0-0.08,0-0.12,0c-21.55-1.49-24.81-13.44-24.94-13.95c-0.24-0.96,0.34-1.93,1.29-2.17
			c0.96-0.25,2.29,0.51,2.54,1.46c0.12,0.45,2.62,9.8,21.35,11.09c0.99,0.07,1.73,0.92,1.66,1.91
			C1042.83,701.26,1042.04,701.98,1041.11,701.98z"/>
	</g>
	<path class="st7" d="M1113.69,819.3c-6.86,2.76-29.16,12.93-45.32,20.35c-3.86,1.77-10.32,3.85-13.75,2.12
		c-3.43-1.73-3.83-7.27-4.7-11.42c-0.01-0.04-0.02-0.09-0.03-0.13c-1.06-8.68-6.71-22.46-14.66-41.28
		c-7.41-17.55-47.69-46.7-64.64-37.37c-8.58,4.72-7.23,32.75-6.84,47.84c1.04,39.9,30.6,55.54,68.16,70.63s59.25-2.23,78.33-12.2
		c14.29-7.46,17.02-21.83,17.02-21.83C1130.78,820.58,1124.74,814.85,1113.69,819.3z"/>
	<path class="st34" d="M1010.92,685.36c0,0,4.35-2.46,1.97-8.17c-3.96-9.47-8.9-38.22,16.55-46.03c22.4-6.87,36.19,5.93,36.2,16.1
		c0,16.26-22.74,29.46-17.06,56.19C1048.58,703.45,1021.29,707.03,1010.92,685.36z"/>
	<path class="st6" d="M1062.35,658.8c-8.13,9.8-13.94,20.26-29.6,25.98c-7.43,2.72-13.42,1.69-19.23-3.36
		c-0.45,2.71-2.59,3.93-2.59,3.93c10.37,21.67,37.65,18.09,37.65,18.09C1044.28,683.21,1056.27,670.73,1062.35,658.8z"/>
	<defs>
		
			<filter id="Adobe_OpacityMaskFilter_00000003823262110041581860000014883772790026856082_" filterUnits="userSpaceOnUse" x="1134.28" y="620.99" width="144.9" height="84.84">
			<feFlood  style="flood-color:white;flood-opacity:1" result="back"/>
			<feBlend  in="SourceGraphic" in2="back" mode="normal"/>
		</filter>
	</defs>
	
		<mask maskUnits="userSpaceOnUse" x="1134.28" y="620.99" width="144.9" height="84.84" id="SVGID_00000176743491526093214730000001174622694339809960_">
		<g style="filter:url(#Adobe_OpacityMaskFilter_00000003823262110041581860000014883772790026856082_);">
			<defs>
				
					<filter id="Adobe_OpacityMaskFilter_00000181079410127429377290000009019302562814844331_" filterUnits="userSpaceOnUse" x="1134.28" y="620.99" width="144.9" height="84.84">
					<feFlood  style="flood-color:white;flood-opacity:1" result="back"/>
					<feBlend  in="SourceGraphic" in2="back" mode="normal"/>
				</filter>
			</defs>
			
				<mask maskUnits="userSpaceOnUse" x="1134.28" y="620.99" width="144.9" height="84.84" id="SVGID_00000176743491526093214730000001174622694339809960_">
				<g style="filter:url(#Adobe_OpacityMaskFilter_00000181079410127429377290000009019302562814844331_);">
				</g>
			</mask>
			
				<linearGradient id="SVGID_00000015322681908423597600000008856068506165453221_" gradientUnits="userSpaceOnUse" x1="1189.2391" y1="690.4606" x2="1226.4103" y2="631.7302">
				<stop  offset="0" style="stop-color:#4D4D4D"/>
				<stop  offset="0.5302" style="stop-color:#0D0D0D"/>
				<stop  offset="1" style="stop-color:#000000"/>
			</linearGradient>
			
				<polygon style="mask:url(#SVGID_00000176743491526093214730000001174622694339809960_);fill:url(#SVGID_00000015322681908423597600000008856068506165453221_);" points="
				1279.18,684.58 1169.04,620.99 1134.28,641.06 1165.73,659.64 1155.31,667.96 1177.32,683.25 1194.48,676.63 1243.91,705.83 			
				"/>
		</g>
	</mask>
	
		<linearGradient id="SVGID_00000146482277087687127750000015042846047914524554_" gradientUnits="userSpaceOnUse" x1="1189.2391" y1="690.4606" x2="1226.4103" y2="631.7302">
		<stop  offset="0" style="stop-color:#4A3DFF"/>
		<stop  offset="0.5302" style="stop-color:#4A3EFF"/>
		<stop  offset="1" style="stop-color:#FFFFFF"/>
	</linearGradient>
	<polygon style="fill:url(#SVGID_00000146482277087687127750000015042846047914524554_);" points="1279.18,684.58 1169.04,620.99 
		1134.28,641.06 1165.73,659.64 1155.31,667.96 1177.32,683.25 1194.48,676.63 1243.91,705.83 	"/>
	<polygon class="st39" points="1155.31,670.62 1177.32,683.25 1197.1,671.56 1199.05,663.96 1196.87,662.26 1175.55,652.47 
		1174.23,658.4 1155.31,667.96 	"/>
	<polygon class="st40" points="1155.31,667.96 1177.32,680.52 1194.94,670.34 1196.87,662.26 1175.55,649.95 1173.51,657.45 	"/>
	<path class="st41" d="M1134.32,622.83l112.98,71.56c0,0,6.41-2.4,6.41-6.04v-99.92c0-2.32-1.23-4.47-3.23-5.65l-112.25-65.83
		c-1.38-0.81-3.09-0.75-4.42,0.14l-4.45,2.81L1134.32,622.83z"/>
	<path class="st7" d="M1127.42,613l121.47,68.9v-90.85c0-2.53-1.35-4.86-3.54-6.13l-112.5-64.95c-2.42-1.4-5.44,0.35-5.44,3.14V613z
		"/>
	<path class="st8" d="M1129.9,627.89l114.97,66.38c1.79,1.03,4.03-0.26,4.03-2.33V681.9l-121.47-70.11v11.81
		C1127.42,625.37,1128.37,627.01,1129.9,627.89z"/>
	<polygon class="st5" points="1135.06,608.22 1241.78,670.43 1241.78,590.86 1135.1,529.6 	"/>
	<defs>
		
			<filter id="Adobe_OpacityMaskFilter_00000007415598524578099060000011080761620136955071_" filterUnits="userSpaceOnUse" x="1013.17" y="336.42" width="200.67" height="138.52">
			<feFlood  style="flood-color:white;flood-opacity:1" result="back"/>
			<feBlend  in="SourceGraphic" in2="back" mode="normal"/>
		</filter>
	</defs>
	
		<mask maskUnits="userSpaceOnUse" x="1013.17" y="336.42" width="200.67" height="138.52" id="SVGID_00000013179280529814577420000016785918205698011556_">
		<g style="filter:url(#Adobe_OpacityMaskFilter_00000007415598524578099060000011080761620136955071_);">
			<defs>
				
					<filter id="Adobe_OpacityMaskFilter_00000167361770061009703150000004101456657372888763_" filterUnits="userSpaceOnUse" x="1013.17" y="336.42" width="229.94" height="138.52">
					<feFlood  style="flood-color:white;flood-opacity:1" result="back"/>
					<feBlend  in="SourceGraphic" in2="back" mode="normal"/>
				</filter>
			</defs>
			
				<mask maskUnits="userSpaceOnUse" x="1013.17" y="336.42" width="229.94" height="138.52" id="SVGID_00000013179280529814577420000016785918205698011556_">
				<g style="filter:url(#Adobe_OpacityMaskFilter_00000167361770061009703150000004101456657372888763_);">
				</g>
			</mask>
			
				<linearGradient id="SVGID_00000158735731721912886600000008058085235635768755_" gradientUnits="userSpaceOnUse" x1="1071.9307" y1="458.9964" x2="1195.2106" y2="334.5313">
				<stop  offset="0" style="stop-color:#333333"/>
				<stop  offset="0.2155" style="stop-color:#2C2C2C"/>
				<stop  offset="0.5107" style="stop-color:#1A1A1A"/>
				<stop  offset="0.716" style="stop-color:#121212"/>
				<stop  offset="0.9971" style="stop-color:#000000"/>
			</linearGradient>
			
				<polygon style="mask:url(#SVGID_00000013179280529814577420000016785918205698011556_);fill:url(#SVGID_00000158735731721912886600000008058085235635768755_);" points="
				1013.17,420.36 1086.17,474.94 1243.11,384.13 1158.25,336.42 			"/>
		</g>
	</mask>
	
		<linearGradient id="SVGID_00000007390210781177375740000017402907385399140493_" gradientUnits="userSpaceOnUse" x1="1041.12" y1="453.7867" x2="1271.8022" y2="316.5189">
		<stop  offset="0" style="stop-color:#211E39"/>
		<stop  offset="0.1542" style="stop-color:#24213C;stop-opacity:0.8458"/>
		<stop  offset="0.2899" style="stop-color:#2F2C46;stop-opacity:0.7101"/>
		<stop  offset="0.4186" style="stop-color:#413E55;stop-opacity:0.5814"/>
		<stop  offset="0.5431" style="stop-color:#5A586C;stop-opacity:0.4569"/>
		<stop  offset="0.6646" style="stop-color:#7A7989;stop-opacity:0.3354"/>
		<stop  offset="0.7838" style="stop-color:#A2A1AC;stop-opacity:0.2162"/>
		<stop  offset="0.8988" style="stop-color:#D0CFD5;stop-opacity:0.1012"/>
		<stop  offset="1" style="stop-color:#FFFFFF;stop-opacity:0"/>
	</linearGradient>
	<polyline style="fill:url(#SVGID_00000007390210781177375740000017402907385399140493_);" points="1213.84,367.67 1158.25,336.42 
		1013.17,420.36 1086.17,474.94 1213.84,401.07 	"/>
	<path class="st7" d="M1184.79,651.28c0,1.53-1.24,2.31-2.78,1.73c-1.53-0.58-2.78-2.29-2.78-3.83c0-1.53,1.24-2.31,2.78-1.73
		C1183.55,648.04,1184.79,649.75,1184.79,651.28z"/>
	<g>
		<g>
			<path class="st0" d="M1198.86,578.89c-3.08-4.58-7.26-8.54-11.78-11.15c-4.52-2.61-8.7-3.48-11.78-2.46
				c-3.16,1.05-4.9,4.05-4.9,8.45c0,6.21,3.35,14.44,8.16,20.11v3.51c0,1.2,0.98,2.75,2.19,3.45c0.93,0.54,1.72,0.41,2.04-0.22
				c0.05,1.19,1.01,2.67,2.18,3.35c1.01,0.58,1.86,0.39,2.11-0.4c0.25,1.08,1.1,2.26,2.11,2.84c1.17,0.68,2.13,0.3,2.18-0.83
				c0.32,1,1.11,2.04,2.04,2.58c1.21,0.7,2.19,0.28,2.19-0.92v-3.51c4.81-0.11,8.16-4.48,8.16-10.69
				C1203.76,588.59,1202.02,583.58,1198.86,578.89z M1180.68,588.23c-2.22-1.28-4.01-4.11-4.01-6.33s1.8-2.98,4.01-1.7
				c2.22,1.28,4.01,4.11,4.01,6.33C1184.7,588.75,1182.9,589.51,1180.68,588.23z M1188.75,598.56c-0.55,0.06-1.19-0.29-1.65-1.67
				c0-0.01-0.01-0.02-0.01-0.03c0,0.01-0.01,0.01-0.01,0.02c-0.46,0.85-1.1,0.46-1.65-0.24c-0.55-0.7-0.8-1.63-0.34-2.48
				c0.46-0.85,2.01-1.21,2.01-1.21l0,0l0,0c0,0,1.55,2.14,2.01,3.52C1189.55,597.86,1189.3,598.5,1188.75,598.56z M1193.48,595.62
				c-2.22-1.28-4.01-4.11-4.01-6.33c0-2.22,1.8-2.98,4.01-1.7c2.22,1.28,4.01,4.11,4.01,6.33S1195.7,596.9,1193.48,595.62z"/>
		</g>
		<g>
			<g>
				<path class="st0" d="M1207.38,634.74c0.87,0.3,1.64,0.13,2.01-0.55c0.6-1.12-0.1-3.21-1.57-4.67s-3.16-1.72-3.76-0.6
					c-0.02,0.04-0.04,0.07-0.05,0.11c-11.08-9.86-21.85-20.49-32.17-31.76c0.02-0.03,0.04-0.07,0.06-0.1
					c0.6-1.12-0.1-3.21-1.57-4.67c-1.47-1.45-3.16-1.72-3.76-0.6c-0.37,0.68-0.25,1.72,0.23,2.76c-0.87-0.3-1.64-0.13-2.01,0.55
					c-0.6,1.12,0.1,3.21,1.57,4.67c1.47,1.45,3.16,1.72,3.76,0.6c0.02-0.04,0.04-0.07,0.05-0.11c11.08,9.86,21.85,20.49,32.17,31.76
					c-0.02,0.03-0.04,0.07-0.06,0.1c-0.6,1.12,0.1,3.21,1.57,4.67c1.47,1.45,3.16,1.72,3.76,0.6
					C1207.98,636.82,1207.86,635.78,1207.38,634.74z"/>
			</g>
			<g>
				<path class="st0" d="M1166.78,611.3c-0.87-0.71-1.64-1.76-2.01-2.87c-0.6-1.82,0.1-3.1,1.57-2.85c1.47,0.25,3.16,1.92,3.76,3.74
					c0.02,0.06,0.04,0.11,0.05,0.17c11.08,2.93,21.85,4.74,32.17,5.39c-0.02-0.06-0.04-0.11-0.06-0.17c-0.6-1.82,0.1-3.1,1.57-2.85
					c1.47,0.25,3.16,1.92,3.76,3.74c0.37,1.11,0.25,2.01-0.23,2.5c0.87,0.71,1.64,1.76,2.01,2.87c0.6,1.82-0.1,3.1-1.57,2.85
					c-1.47-0.25-3.16-1.92-3.76-3.74c-0.02-0.06-0.04-0.11-0.05-0.17c-11.08-2.93-21.85-4.74-32.17-5.39
					c0.02,0.06,0.04,0.11,0.06,0.17c0.6,1.82-0.1,3.1-1.57,2.85c-1.47-0.25-3.16-1.92-3.76-3.74
					C1166.19,612.69,1166.3,611.79,1166.78,611.3z"/>
			</g>
		</g>
	</g>
	<g>
		<polygon class="st25" points="1086.17,474.94 1000.71,524.38 915.25,474.94 915.25,455.24 1000.71,425.49 1086.17,455.24 		"/>
		<polygon class="st25" points="1086.17,463.12 1000.71,512.56 915.25,463.12 915.25,443.42 1000.71,413.67 1086.17,443.42 		"/>
	</g>
	<polygon class="st7" points="1086.17,443.42 1000.71,492.87 915.25,443.42 1000.71,393.97 	"/>
	<polygon class="st6" points="1022.89,434.74 1013.17,456.83 975.95,478.54 931.19,452.64 969.32,431.58 	"/>
	<polygon class="st6" points="1013.17,456.83 1032.62,445.67 1032.62,307.79 1013.17,318.94 	"/>
	<polygon class="st7" points="969.32,431.58 1013.17,456.83 1013.17,318.94 969.32,293.69 	"/>
	<path class="st6" d="M935.79,231.36c0-31.43,35.64-56.39,71.72-43.43c36.08,12.95,65.33,56.51,65.33,97.29
		c0,40.78-37.56,65.4-77.88,50.79C958.92,322.94,935.79,272.14,935.79,231.36z"/>
	
		<ellipse transform="matrix(0.8639 -0.5037 0.5037 0.8639 -2.9118 533.7712)" class="st7" cx="986.22" cy="272.27" rx="48.3" ry="69.04"/>
	
		<ellipse transform="matrix(0.8599 -0.5104 0.5104 0.8599 -5.9722 538.6555)" class="st6" cx="978.45" cy="280.21" rx="31.73" ry="47.16"/>
	
		<ellipse transform="matrix(0.8599 -0.5104 0.5104 0.8599 -7.7833 536.6396)" class="st0" cx="973.88" cy="282.5" rx="21.68" ry="32.23"/>
	<path class="st46" d="M954.64,269.39c0-5.1,3.66-7.76,8.17-5.94c4.51,1.82,8.17,7.43,8.17,12.53s-3.66,7.76-8.17,5.94
		C958.29,280.11,954.64,274.49,954.64,269.39z"/>
	<rect x="63.02" y="469.85" class="st47" width="770.13" height="260.3"/>
	<text transform="matrix(1 0 0 1 109.7688 530.0493)"><tspan x="0" y="0" class="st48 st49 st50">Personal Vulnerability </tspan><tspan x="146.24" y="103.2" class="st48 st49 st50">Investigation</tspan></text>
</g>
<g id="Layer_3">
</g>
</svg>
