<?xml version="1.0" encoding="utf-8"?>
<!-- Generator: Adobe Illustrator 26.3.1, SVG Export Plug-In . SVG Version: 6.00 Build 0)  -->
<svg version="1.1" id="Layer_1" xmlns="http://www.w3.org/2000/svg" xmlns:xlink="http://www.w3.org/1999/xlink" x="0px" y="0px"
	 viewBox="0 0 1800 1200" style="enable-background:new 0 0 1800 1200;" xml:space="preserve">
<style type="text/css">
	.st0{fill:#211E39;}
	.st1{clip-path:url(#SVGID_00000063617572619146617280000018388064855272523393_);}
	.st2{filter:url(#Adobe_OpacityMaskFilter);}
	.st3{clip-path:url(#SVGID_00000146478051053100931580000018062750316657401994_);}
	.st4{clip-path:url(#SVGID_00000014635462857616247180000001288200297540920975_);}
	
		.st5{clip-path:url(#SVGID_00000018916301612560863850000013741727737831657089_);fill:url(#SVGID_00000133487438969511751190000006262078003763589564_);}
	
		.st6{clip-path:url(#SVGID_00000146478051053100931580000018062750316657401994_);mask:url(#SVGID_00000016050846898705466740000006884710057950024096_);fill:url(#SVGID_00000152981381037555903560000000348149018033333153_);}
	.st7{fill:url(#SVGID_00000051346880086514911340000010473434258214390462_);}
	.st8{fill:#FFFFFF;}
	.st9{fill:#3E3D79;}
	.st10{fill:#6FD6FF;}
	.st11{fill:#FAF7FF;}
	.st12{fill:#F45180;}
	.st13{fill:#151538;}
	.st14{clip-path:url(#SVGID_00000020377971490116056570000005111437545584328123_);}
	.st15{filter:url(#Adobe_OpacityMaskFilter_00000166661887681814473130000006930557848865517192_);}
	.st16{clip-path:url(#SVGID_00000065767866323015431100000005358010701423929749_);}
	.st17{clip-path:url(#SVGID_00000084489905226729935520000010097248210073033657_);}
	
		.st18{clip-path:url(#SVGID_00000101810904518104036210000005416547249848501418_);fill:url(#SVGID_00000127733681156322410950000005822368344982734498_);}
	
		.st19{clip-path:url(#SVGID_00000065767866323015431100000005358010701423929749_);mask:url(#SVGID_00000096041060976884028920000009215476895610393526_);fill:url(#SVGID_00000112616992555455159770000016095209960568111534_);}
	.st20{fill:url(#SVGID_00000160898350145903487050000010526457447062801316_);}
	.st21{clip-path:url(#SVGID_00000111898487507787183510000003651679749706576568_);}
	.st22{filter:url(#Adobe_OpacityMaskFilter_00000140724717666359076510000014366117997628634799_);}
	.st23{clip-path:url(#SVGID_00000155849970361886583310000012354645155684926357_);}
	.st24{clip-path:url(#SVGID_00000052106232043920600810000010572638612327963541_);}
	
		.st25{clip-path:url(#SVGID_00000067228109566764922430000017384049714328421792_);fill:url(#SVGID_00000114044552857516653390000000630402778713438878_);}
	
		.st26{clip-path:url(#SVGID_00000155849970361886583310000012354645155684926357_);mask:url(#SVGID_00000088828490311764759170000003354876239137148825_);fill:url(#SVGID_00000057828967938280319190000000827885691377343673_);}
	.st27{fill:url(#SVGID_00000028290250029309745950000008805289633258393753_);}
	.st28{clip-path:url(#SVGID_00000114036596162720421100000005865774311895147695_);}
	.st29{filter:url(#Adobe_OpacityMaskFilter_00000074429381707971982950000000308423364999353746_);}
	.st30{clip-path:url(#SVGID_00000093137667713851573060000005178525628679332496_);}
	.st31{clip-path:url(#SVGID_00000132050337309090391310000010409150398181672872_);}
	
		.st32{clip-path:url(#SVGID_00000085248292371937006960000004680643314664076961_);fill:url(#SVGID_00000094587942807696737800000013954007247028304805_);}
	
		.st33{clip-path:url(#SVGID_00000093137667713851573060000005178525628679332496_);mask:url(#SVGID_00000181806565129278819910000001529067124776433540_);fill:url(#SVGID_00000165921483782364325350000013021832874717137024_);}
	.st34{fill:url(#SVGID_00000120530541181177263660000010573195638650677950_);}
	.st35{fill:#76A0FF;}
	.st36{fill:#2A4FB7;}
	.st37{fill:#1A182E;}
	.st38{fill:#251642;}
	.st39{fill:#B24470;}
	.st40{fill:#FFC2AF;}
	.st41{fill:#121049;}
	.st42{fill:#7D61CC;}
	.st43{fill:#FDC0AD;}
	.st44{fill:#5B32C9;}
	.st45{fill:#433F93;}
	.st46{fill:#927AB3;}
	.st47{clip-path:url(#SVGID_00000081620415821013767010000007711457883984452006_);}
	.st48{filter:url(#Adobe_OpacityMaskFilter_00000123404353977730403810000009760773431608489896_);}
	.st49{clip-path:url(#SVGID_00000033354902951520384370000002700858173551517318_);}
	.st50{clip-path:url(#SVGID_00000176001264570614073390000009351409356835028864_);}
	
		.st51{clip-path:url(#SVGID_00000171702202246798854140000005178901425790194310_);fill:url(#SVGID_00000025440298816587020050000009150967642490001289_);}
	
		.st52{clip-path:url(#SVGID_00000033354902951520384370000002700858173551517318_);mask:url(#SVGID_00000042723103897906581520000016285277279139119271_);fill:url(#SVGID_00000129893041454037689240000000268138347551750292_);}
	.st53{fill:url(#SVGID_00000129886014222446043150000004107508954312802708_);}
	.st54{fill:#59ABCC;}
	.st55{fill:#F0F1FC;}
	.st56{fill:#E0E3FC;}
	.st57{clip-path:url(#SVGID_00000029020240443243760120000005322526491181407106_);}
	.st58{filter:url(#Adobe_OpacityMaskFilter_00000039097200160927350200000002292041977012262784_);}
	.st59{clip-path:url(#SVGID_00000060730504841351023730000001050303968153926536_);}
	.st60{clip-path:url(#SVGID_00000004519955951852012430000000255138251680361626_);}
	
		.st61{clip-path:url(#SVGID_00000012446510828291487680000007315904973026308497_);fill:url(#SVGID_00000132795029943456146730000017569662040043222952_);}
	
		.st62{clip-path:url(#SVGID_00000060730504841351023730000001050303968153926536_);mask:url(#SVGID_00000116237321287884744110000003892244687607336590_);fill:url(#SVGID_00000053516141324407367560000006154457551992520596_);}
	.st63{fill:url(#SVGID_00000136403956425220162950000013575073467219664317_);}
	.st64{opacity:0.1;fill:#FFFFFF;enable-background:new    ;}
	.st65{fill:none;}
	.st66{fill:#D0AEFF;}
	.st67{font-family:'BebasNeue-Regular';}
	.st68{font-size:86px;}
</style>
<g id="bg">
	<g>
		<g>
			<g>
				<g>
					<g>
						<g>
							<path class="st0" d="M1768,1200H32c-17.6,0-32-14.3-32-32V32C0,14.3,14.3,0,32,0H1768c17.7,0,32,14.3,32,32V1168
								C1800,1185.7,1785.7,1200,1768,1200z"/>
						</g>
					</g>
				</g>
			</g>
		</g>
	</g>
</g>
<g>
	<g>
		<defs>
			<polygon id="SVGID_1_" points="1,1 2,1 1,2 			"/>
		</defs>
		<defs>
			<polygon id="SVGID_00000014612071904637958330000007520400156721651628_" points="-1,-1 -2,-1 -1,-2 			"/>
		</defs>
		<clipPath id="SVGID_00000141417361054062840500000010289599845193290145_">
			<use xlink:href="#SVGID_1_"  style="overflow:visible;"/>
		</clipPath>
		
			<clipPath id="SVGID_00000068656299735829340960000004369147081989370017_" style="clip-path:url(#SVGID_00000141417361054062840500000010289599845193290145_);">
			<use xlink:href="#SVGID_00000014612071904637958330000007520400156721651628_"  style="overflow:visible;"/>
		</clipPath>
		<defs>
			<filter id="Adobe_OpacityMaskFilter" filterUnits="userSpaceOnUse" x="1238.9" y="0" width="565.8" height="684">
				<feColorMatrix  type="matrix" values="1 0 0 0 0  0 1 0 0 0  0 0 1 0 0  0 0 0 1 0"/>
			</filter>
		</defs>
		
			<mask maskUnits="userSpaceOnUse" x="1238.9" y="0" width="565.8" height="684" id="SVGID_00000111188165275355505360000013323660855569266085_">
			<g class="st2">
				<g>
					<defs>
						<polygon id="SVGID_00000055697790371129706390000001472938967141280918_" points="1,1 2,1 1,2 						"/>
					</defs>
					<defs>
						<polygon id="SVGID_00000137103776952393221360000017965845939523853990_" points="-1,-1 -2,-1 -1,-2 						"/>
					</defs>
					
						<clipPath id="SVGID_00000161603190207315228590000015177325884272891566_" style="clip-path:url(#SVGID_00000068656299735829340960000004369147081989370017_);">
						<use xlink:href="#SVGID_00000055697790371129706390000001472938967141280918_"  style="overflow:visible;"/>
					</clipPath>
					
						<clipPath id="SVGID_00000120526512378064415810000005866090017411900573_" style="clip-path:url(#SVGID_00000161603190207315228590000015177325884272891566_);">
						<use xlink:href="#SVGID_00000137103776952393221360000017965845939523853990_"  style="overflow:visible;"/>
					</clipPath>
					
						<linearGradient id="SVGID_00000070102476956322137190000008949847852971018942_" gradientUnits="userSpaceOnUse" x1="1322.7943" y1="704.8619" x2="1740.7056" y2="1069.3199" gradientTransform="matrix(1 0 0 -1 0 1200)">
						<stop  offset="0" style="stop-color:#525252"/>
						<stop  offset="0.5302" style="stop-color:#262626"/>
						<stop  offset="1" style="stop-color:#000000"/>
					</linearGradient>
					
						<path style="clip-path:url(#SVGID_00000120526512378064415810000005866090017411900573_);fill:url(#SVGID_00000070102476956322137190000008949847852971018942_);" d="
						M1804.7,0h-455.1l-110.7,62.2l1.6,365.5v43.2l125,71.6l22.7,68.8l66.1-18l154.8,88.7c4.7,2.7,10.6,2.7,15.3,0.1l180.2-101V0z"
						/>
				</g>
			</g>
		</mask>
		
			<linearGradient id="SVGID_00000181785619155770319850000011554371760233331328_" gradientUnits="userSpaceOnUse" x1="1322.7943" y1="704.8619" x2="1740.7056" y2="1069.3199" gradientTransform="matrix(1 0 0 -1 0 1200)">
			<stop  offset="0" style="stop-color:#525252"/>
			<stop  offset="0.5302" style="stop-color:#262626"/>
			<stop  offset="1" style="stop-color:#000000"/>
		</linearGradient>
		
			<path style="clip-path:url(#SVGID_00000068656299735829340960000004369147081989370017_);mask:url(#SVGID_00000111188165275355505360000013323660855569266085_);fill:url(#SVGID_00000181785619155770319850000011554371760233331328_);" d="
			M1804.7,0h-455.1l-110.7,62.2l1.6,365.5v43.2l125,71.6l22.7,68.8l66.1-18l154.8,88.7c4.7,2.7,10.6,2.7,15.3,0.1l180.2-101V0z"/>
	</g>
</g>
<radialGradient id="SVGID_00000106825770802792586800000002926531150397790883_" cx="1479.171" cy="1007.2009" r="435.3135" gradientTransform="matrix(0.8976 -0.4572 -0.332 -0.7011 407.4746 1785.7743)" gradientUnits="userSpaceOnUse">
	<stop  offset="0" style="stop-color:#1A182E"/>
	<stop  offset="1" style="stop-color:#FFFFFF;stop-opacity:0"/>
</radialGradient>
<path style="fill:url(#SVGID_00000106825770802792586800000002926531150397790883_);" d="M1804.7,0h-455.1l-110.7,62.2l1.6,365.5
	v43.2l125,71.6l22.7,68.8l66.1-18l154.8,88.7c4.7,2.7,10.6,2.7,15.3,0.1l180.2-101V0z"/>
<polygon class="st8" points="1312.8,605.8 1373,643.5 1436.1,606.3 1442.3,582 1435.3,576.6 1367.3,545.4 1363.1,564.3 
	1302.8,594.8 "/>
<polygon class="st9" points="1302.8,603.2 1373,643.5 1373,634.8 1350.6,606.9 1302.8,594.8 "/>
<polygon class="st10" points="1302.8,594.8 1373,634.8 1429.2,602.4 1435.3,576.6 1367.3,537.3 1360.8,561.2 "/>
<path class="st8" d="M1235.8,450.8l360.3,228.2c0,0,20.4-7.7,20.4-19.3V341.1c0-7.4-3.9-14.3-10.3-18l-358-210
	c-4.4-2.6-9.9-2.4-14.1,0.5l-14.2,9L1235.8,450.8z"/>
<path class="st8" d="M1368.7,535l227.4,144.1c0,0,20.4-7.7,20.4-19.3V341.1c0-3.9-1.1-7.6-3-10.8l-14.4,9.6L1368.7,535z"/>
<path class="st11" d="M1221.8,467l366.7,211.7c5.7,3.3,12.8-0.8,12.8-7.4v-32l-387.4-223.6v37.6
	C1213.8,458.9,1216.8,464.2,1221.8,467z"/>
<path class="st10" d="M1213.8,415.6l387.4,223.6V349.5c0-8.1-4.3-15.5-11.3-19.5l-358.8-207.1c-7.7-4.4-17.3,1.1-17.3,10
	L1213.8,415.6L1213.8,415.6z"/>
<polygon class="st8" points="1238.2,404.2 1578.6,602.6 1578.6,348.9 1238.3,153.5 "/>
<ellipse transform="matrix(0.7699 -0.6381 0.6381 0.7699 -24.1499 1009.4742)" class="st10" cx="1387.9" cy="538.2" rx="7.3" ry="10.7"/>
<g>
	<polygon class="st0" points="1341,443.1 1332.3,425.7 1339.1,399 1328.5,377.3 1332.8,370.6 1309.9,347.6 1292.6,317 1293.9,310 
		1276.1,280.5 1261.5,276.6 1254.7,254.6 1265.2,254.7 1282.8,271.1 1292.8,275 1303.7,285.8 1312.3,287.6 1319.6,294 1329.6,298.6 
		1321.5,306.7 1325,316.5 1333.4,321.4 1332,310.1 1336.9,311.8 1341,322.2 1343.9,320.2 1351.8,337.1 1339.3,335.9 1329.9,347.8 
		1317.4,341.6 1316.6,350.6 1325,353.9 1325,358.5 1336.6,369.8 1342.6,370 1371.5,404.8 1342.3,432.5 1349.3,448 	"/>
	<polygon class="st0" points="1338,283.9 1338,289.7 1348.2,295.6 1357.1,327.9 1363.2,331.5 1365.4,323.7 1368.8,325.7 1372.8,324 
		1376.7,326.3 1380.5,325 1382.1,307.1 1389,307.6 1372.6,293.6 1346.1,280.8 1343.9,285.7 	"/>
	<path class="st0" d="M1476.1,439l-4.9-1l-3.4,11.5l-5.1-2.9l-5.9-20.6l-11.7-8.2l-3.1-5.9l-2.5-0.2l1.4,5.2l8.8,7.1
		c0,0-3.4,5-4,4.9c-0.5-0.1-9.6-4.8-9.6-4.8l-8.5-20.4l-2,0.3l6.3,19.4l9.7,7l-11.9,9.9l3.2,8l-10.8,16.5l-4.2-6l-4.5,1l-5.4-22.6
		l4.4-1.9l-6.8-15.7l2.3-2.2l-8-6.2l-9.7-3.5l-7-12.9l3.6-11.6l6.4-3.2l13.9,5.2l3.7,7.2l10.6,5.5c0,0,2.9,3.1,3.2,3.3
		c0.4,0.2,4.1-2.6,4.1-2.6l-9.9-10.7l-8.4-3l-5.2-8.8l-8.3,1.9l-6.6-4.4l0.3-5.9l6.8,1.6l-3.6-5.2l11.9,0.1l10.1,5.2l8.7-2.3
		l-7.2-4.2l1.3-8.8l-8.1,10.5l-9.7-9l12.4-10.3l10.8,3.2l9,11.3l2.2,3.8l13.3,3.6l7.7,5l-1.6-6.4l3.5-2.5l2.7,2.9l-0.4,7.5l6,0.4
		l0.1-5.9l5.4,2.7l-0.3-2.9l11.6,3.9l2.5-1.2l3.7,3.5v1.6l4,2.4l0.7,3.5l-5.9-0.2l2.6,1.9l3.2,0.2l4.7,3.4l1,2.7l5.9,1.1l2.9,3.4
		l1.1,4.4l5.4,2.2l2.2-1.5l6.8,5.3l1.8,3.8l6,2.9l1.1,2.9l7,3.7l5.2,3.1l8.7,10.5l4.4,3.8l-1.9,2.6l-6-6.8l-2.5,0.8l1.3,4.5
		l-7.9-1.3l-5.4-2.9l-4,10.6l-1.8-2.7l-1.7-7.8l6.2-3l-4.6-3.7l-2,3.4l-8.9-5.7l-6.5,2.6l2.3,3.1l3.8,2.8l-3.8,7.8l-5.9-1l-1.4,2
		l0.2,5.9l-3-1.1l-1.3-6.6l-2.2-0.3l-4-2.4l3.4,10.4l-2.2,5.4l-9.9-2.5l-0.8,1.7l3.1,7l-1.2,1.7l-3.2-0.2l-6.6-8.6L1476.1,439z"/>
	<polygon class="st0" points="1495.4,505 1496.2,501.4 1493.8,491.8 1501.2,493.2 1506.2,490.2 1514.3,493.3 1517.6,500.8 
		1518.9,495.5 1520.8,497.8 1524.8,508.9 1527.9,515.6 1524.9,526.6 1521.4,525.8 1516.1,519.8 1511.6,511.7 1504.8,509.1 
		1498.2,508.6 	"/>
	<path class="st0" d="M1491.8,472.5v-1.3l-1.3-2.3l0.7-2l1.4,2.5c0,0,2.8-2,2.9-1.9c0.2,0.1,2.1-1,2.1-1l1.8,3.2l-1.3,1.8l1,1.9
		l-1.9,1.4l-1.2,1.4L1491.8,472.5z"/>
	<path class="st0" d="M1478.8,457.8l4.9,8c0,0,2.5,7.4,2.8,7.4s3.1-0.1,3.1-0.1l-1-3.3l-1.5-1c0,0-1.3-1.8-1.2-2s0.2-1.1,0.2-1.1
		l-2.7-2.9l-2.3-4L1478.8,457.8z"/>
	<polygon class="st0" points="1513.1,485.8 1515.4,484.6 1517.7,487.8 1523.4,493.3 1523,495 1525.8,499.1 1523.9,498.9 1521.2,494 
		1519.8,493.2 1519.4,494.7 1516.5,492.4 1515.9,490.9 1515.2,491.5 1513.9,490.2 1514.8,488.9 	"/>
	<polygon class="st0" points="1394.1,361.5 1400,362.2 1395.8,355.7 1396.4,349.8 1392.4,347.8 1393.3,354.1 1394.8,357 	"/>
	<polygon class="st0" points="1387.8,358.3 1392.3,359.7 1392.7,356 1391.2,353.8 1389.8,356.2 1387.8,355.1 	"/>
	<polygon class="st0" points="1445.4,358.6 1447.4,362.6 1442,360.1 1443.1,355.1 1449.7,352.9 1457.6,355.5 1456.8,357.3 
		1449.8,355.7 	"/>
	<polygon class="st0" points="1324.8,284.8 1323.9,292.2 1332.1,296.9 1338,305.6 1335.1,307.9 1340.1,314.6 1347.4,312.5 
		1340.9,304.5 1342.9,303.3 1333.9,292.9 	"/>
	<path class="st0" d="M1298.2,273.8l0.8,2.8l2.9,0.8l1.1,3l-2.8-1l2.8,4.5l5.2,1l5.3,2.1l-3.6-3.9c0,0,0.4-5.7,0.3-5.8
		c-0.1-0.1-3.2-1.3-3.2-1.3l0.2,3.2l-4.2-4.3L1298.2,273.8z"/>
	<polygon class="st0" points="1292.2,270.3 1294.6,274 1297.2,275.2 1297.2,273.2 1301,272.8 1299,269.9 1297.3,269.8 1296.4,267.9 
		1293,266.4 1294.3,268.4 	"/>
</g>
<polygon class="st0" points="1508.9,448.7 1510.8,451.1 1518.3,451.3 1519.4,445.6 1522.5,444.6 1522.5,432.3 1520.2,431.5 
	1520.2,441 1515.7,441.8 1515.2,447.7 "/>
<polygon class="st0" points="1520.2,527 1522.4,532.5 1524.7,528.4 1522.2,528.7 "/>
<polygon class="st0" points="1437.7,463 1441.2,454.8 1439.4,449.6 1438.7,453.2 1435.4,453 1436.1,456.9 1434.4,461.1 "/>
<path class="st0" d="M1379.7,332.7v3c0,0,3.7,2.8,3.8,2.9s4.4-0.5,4.4-0.5l-3.1-5.1l-3.6-0.3l-2.1-2.7l-2.2,1.1L1379.7,332.7z"/>
<polygon class="st0" points="1408.6,322.4 1411.4,329.4 1413.6,331.6 1416,328.6 1416.8,331.8 1419.1,333.3 1416.8,329.1 
	1415.5,327.2 1414.5,326.9 1412.8,324 1411.9,324 1412.4,325.5 1411,324.5 1409.6,322.1 "/>
<path class="st0" d="M1414.4,324.9l1.4,1.8l1.1,0.4v1c0,0,2.7,2.1,2.8,2.1s3.1-0.4,3.1-0.4l-1.8-1.9l-2.2-0.1l-1.6-1.7l-1,0
	l-1.3-1.6L1414.4,324.9z"/>
<path class="st0" d="M1476.5,359.1l0.1,1.3l-0.6,1.7l2.1,0.4v1l5,3.8l-0.4-2.2l-0.1-1.5l-2.7-1.1l0.9-1c0,0-1.5-2.3-1.6-2.3
	S1476.5,359.1,1476.5,359.1z"/>
<polygon class="st0" points="1482.6,368.5 1483.6,367.4 1484.2,366 1485.8,368.1 1488.1,369.9 1485.3,369.8 "/>
<polygon class="st0" points="1327,354.4 1329.5,354.2 1333.1,357.4 1336.1,361.9 1339.2,363 1340.7,365.5 1343.6,367.1 
	1342.9,368.2 1340,365.7 1338.8,364.2 1337.8,364.7 1335.7,363.5 1332.1,358.1 1329.5,355.9 "/>
<g>
	<g>
		<g>
			<g>
				<g>
					<path class="st12" d="M1512.1,378.8c-6.8-3.9-12.3-0.9-12.3,5.9c0,2.9,1.5,8.3,4.1,14c3.4,7.7,8.2,15.5,8.2,15.5s4.7-2.4,8.1-6
						c2.6-2.8,4.2-6.4,4.2-9.4C1524.4,392.2,1518.8,382.8,1512.1,378.8z"/>
				</g>
			</g>
		</g>
	</g>
	<g>
		<g>
			<g>
				<g>
					<path class="st12" d="M1300.3,257.3c-6.8-3.9-12.3-0.9-12.3,5.9c0,2.9,1.5,8.3,4.1,14c3.4,7.7,8.2,15.5,8.2,15.5s4.7-2.4,8.1-6
						c2.6-2.8,4.2-6.4,4.2-9.4C1312.6,270.6,1307.1,261.2,1300.3,257.3z"/>
				</g>
			</g>
		</g>
	</g>
	<g>
		<g>
			<g>
				<g>
					<path class="st12" d="M1352.1,357.2c-6.8-3.9-12.3-0.9-12.3,5.9c0,2.9,1.5,8.3,4.1,14c3.4,7.7,8.2,15.5,8.2,15.5s4.7-2.4,8.1-6
						c2.6-2.8,4.2-6.4,4.2-9.4C1364.4,370.5,1358.9,361.1,1352.1,357.2z"/>
				</g>
			</g>
		</g>
	</g>
	<g>
		<g>
			<g>
				<g>
					<path class="st12" d="M1364.4,270.1c-6.8-3.9-12.3-0.9-12.3,5.9c0,2.9,1.5,8.3,4.1,14c3.4,7.7,8.2,15.5,8.2,15.5s4.7-2.4,8.1-6
						c2.6-2.8,4.2-6.4,4.2-9.4C1376.7,283.5,1371.2,274.1,1364.4,270.1z"/>
				</g>
			</g>
		</g>
	</g>
	<g>
		<g>
			<g>
				<g>
					<path class="st12" d="M1392.7,362.1c-6.8-3.9-12.3-0.9-12.3,5.9c0,2.9,1.5,8.3,4.1,14c3.4,7.7,8.2,15.5,8.2,15.5s4.7-2.4,8.1-6
						c2.6-2.8,4.2-6.4,4.2-9.4C1405,375.4,1399.5,366,1392.7,362.1z"/>
				</g>
			</g>
		</g>
	</g>
	<g>
		<g>
			<g>
				<g>
					<path class="st12" d="M1472.7,367c-6.8-3.9-12.3-0.9-12.3,5.9c0,2.9,1.5,8.3,4.1,14c3.4,7.7,8.2,15.5,8.2,15.5s4.7-2.4,8.1-6
						c2.6-2.8,4.2-6.4,4.2-9.4C1485,380.3,1479.5,370.9,1472.7,367z"/>
				</g>
			</g>
		</g>
	</g>
	<g>
		<g>
			<g>
				<g>
					<path class="st12" d="M1433.4,397.4c-6.8-3.9-12.3-0.9-12.3,5.9c0,2.9,1.5,8.3,4.1,14c3.4,7.7,8.2,15.5,8.2,15.5s4.7-2.4,8.1-6
						c2.6-2.8,4.2-6.4,4.2-9.4C1445.7,410.8,1440.2,401.4,1433.4,397.4z"/>
				</g>
			</g>
		</g>
	</g>
	<g>
		<g>
			<g>
				<g>
					<path class="st12" d="M1425.3,322.1c-6.8-3.9-12.3-0.9-12.3,5.9c0,2.9,1.5,8.3,4.1,14c3.4,7.7,8.2,15.5,8.2,15.5s4.7-2.4,8.1-6
						c2.6-2.8,4.2-6.4,4.2-9.4C1437.6,335.5,1432.1,326.1,1425.3,322.1z"/>
				</g>
			</g>
		</g>
	</g>
	<g>
		<g>
			<g>
				<g>
					<path class="st12" d="M1515,469.2c-6.8-3.9-12.3-0.9-12.3,5.9c0,2.9,1.5,8.3,4.1,14c3.4,7.7,8.2,15.5,8.2,15.5s4.7-2.4,8.1-6
						c2.6-2.8,4.2-6.4,4.2-9.4C1527.3,482.6,1521.8,473.2,1515,469.2z"/>
				</g>
			</g>
		</g>
	</g>
	<g>
		<g>
			<g>
				<g>
					<path class="st12" d="M1312.4,308.3c-6.8-3.9-12.3-0.9-12.3,5.9c0,2.9,1.5,8.3,4.1,14c3.4,7.7,8.2,15.5,8.2,15.5s4.7-2.4,8.1-6
						c2.6-2.8,4.2-6.4,4.2-9.4C1324.7,321.7,1319.2,312.2,1312.4,308.3z"/>
				</g>
			</g>
		</g>
	</g>
</g>
<polygon class="st13" points="1485.7,735.8 1485.7,748.6 1473.4,741.5 1473.4,728.7 "/>
<polygon class="st13" points="1490.6,781.5 1490.6,794.3 1473.4,784.4 1473.4,771.6 "/>
<path class="st9" d="M1456,722.2l5.9-1.7l0.5-7.3c0,0,7.1-4.2,8.4-4.8c1.8-0.9,4.3-1.1,7.2,0.6l77.7,44.9c5,2.9,9.1,9.3,9.1,14.4
	V850c0,2.3-1.1,3.7-2.3,4.8c-1.6,1.3-8.9,5.1-8.9,5.1l-75.6-50.9c-5-2.9-9.1-9.3-9.1-14.4V741l-21.6-13.7L1456,722.2z"/>
<path class="st10" d="M1447.4,727.2l13-3.6v-5.7c0-5,4.1-6.8,9.1-3.9l77.7,44.9c5,2.9,9.1,9.3,9.1,14.4V855c0,5-4.1,6.8-9.1,3.9
	l-77.7-44.9c-5-2.9-9.1-9.3-9.1-14.4V746L1447.4,727.2z"/>
<polygon class="st8" points="1519.9,755.4 1544.1,769.4 1544.1,782.2 1519.9,768.2 "/>
<polygon class="st8" points="1505.3,747 1505.3,759.8 1473.4,741.4 1473.4,728.6 "/>
<polygon class="st8" points="1499.5,765.1 1544.1,790.8 1544.1,803.7 1499.5,777.9 "/>
<polygon class="st8" points="1526.8,802.3 1544.1,812.3 1544.1,825.1 1526.8,815.1 "/>
<polygon class="st8" points="1513.7,794.8 1513.7,807.6 1473.4,784.3 1473.4,771.5 "/>
<polygon class="st8" points="1506.1,811.9 1544.1,833.8 1544.1,846.6 1506.1,824.7 "/>
<g>
	<g>
		<defs>
			<polygon id="SVGID_00000054254190271280760110000008172742544043405201_" points="1,1 2,1 1,2 			"/>
		</defs>
		<defs>
			<polygon id="SVGID_00000155110792059894894820000015343505385931456133_" points="-1,-1 -2,-1 -1,-2 			"/>
		</defs>
		<clipPath id="SVGID_00000173146020311956366580000005331159225431069869_">
			<use xlink:href="#SVGID_00000054254190271280760110000008172742544043405201_"  style="overflow:visible;"/>
		</clipPath>
		
			<clipPath id="SVGID_00000046335759097862212350000015634481520336385945_" style="clip-path:url(#SVGID_00000173146020311956366580000005331159225431069869_);">
			<use xlink:href="#SVGID_00000155110792059894894820000015343505385931456133_"  style="overflow:visible;"/>
		</clipPath>
		<defs>
			
				<filter id="Adobe_OpacityMaskFilter_00000116941233896676443590000005785911919461974666_" filterUnits="userSpaceOnUse" x="1466.5" y="860" width="216.7" height="126.6">
				<feColorMatrix  type="matrix" values="1 0 0 0 0  0 1 0 0 0  0 0 1 0 0  0 0 0 1 0"/>
			</filter>
		</defs>
		
			<mask maskUnits="userSpaceOnUse" x="1466.5" y="860" width="216.7" height="126.6" id="SVGID_00000154387755130397065170000016118153594931632290_">
			<g style="filter:url(#Adobe_OpacityMaskFilter_00000116941233896676443590000005785911919461974666_);">
				<g>
					<defs>
						<polygon id="SVGID_00000035507381600641637840000005753875306475005347_" points="1,1 2,1 1,2 						"/>
					</defs>
					<defs>
						<polygon id="SVGID_00000137827130508491763690000005209134890764163979_" points="-1,-1 -2,-1 -1,-2 						"/>
					</defs>
					
						<clipPath id="SVGID_00000121993627215676817340000017034888009684094868_" style="clip-path:url(#SVGID_00000046335759097862212350000015634481520336385945_);">
						<use xlink:href="#SVGID_00000035507381600641637840000005753875306475005347_"  style="overflow:visible;"/>
					</clipPath>
					
						<clipPath id="SVGID_00000003067800122509146400000015198917129652112303_" style="clip-path:url(#SVGID_00000121993627215676817340000017034888009684094868_);">
						<use xlink:href="#SVGID_00000137827130508491763690000005209134890764163979_"  style="overflow:visible;"/>
					</clipPath>
					
						<linearGradient id="SVGID_00000054226893731138507250000012863660898834009740_" gradientUnits="userSpaceOnUse" x1="1521.7606" y1="195.0885" x2="1625.3967" y2="354.9526" gradientTransform="matrix(1 0 0 -1 0 1200)">
						<stop  offset="0" style="stop-color:#333333"/>
						<stop  offset="0.2155" style="stop-color:#2C2C2C"/>
						<stop  offset="0.5107" style="stop-color:#1A1A1A"/>
						<stop  offset="0.716" style="stop-color:#121212"/>
						<stop  offset="0.9971" style="stop-color:#000000"/>
					</linearGradient>
					
						<path style="clip-path:url(#SVGID_00000003067800122509146400000015198917129652112303_);fill:url(#SVGID_00000054226893731138507250000012863660898834009740_);" d="
						M1469.6,939l76.3,44.9c6.5,3.8,14.6,3.8,21-0.1l116.2-69.6L1590,860l-59.6,33.8l-27.4-3.4l7.2,14.8l-40.6,23
						C1465.5,930.7,1465.5,936.6,1469.6,939z"/>
				</g>
			</g>
		</mask>
		
			<linearGradient id="SVGID_00000054265100223078290850000010629337202293860517_" gradientUnits="userSpaceOnUse" x1="1521.7606" y1="195.0885" x2="1625.3967" y2="354.9526" gradientTransform="matrix(1 0 0 -1 0 1200)">
			<stop  offset="0" style="stop-color:#333333"/>
			<stop  offset="0.2155" style="stop-color:#2C2C2C"/>
			<stop  offset="0.5107" style="stop-color:#1A1A1A"/>
			<stop  offset="0.716" style="stop-color:#121212"/>
			<stop  offset="0.9971" style="stop-color:#000000"/>
		</linearGradient>
		
			<path style="clip-path:url(#SVGID_00000046335759097862212350000015634481520336385945_);mask:url(#SVGID_00000154387755130397065170000016118153594931632290_);fill:url(#SVGID_00000054265100223078290850000010629337202293860517_);" d="
			M1469.6,939l76.3,44.9c6.5,3.8,14.6,3.8,21-0.1l116.2-69.6L1590,860l-59.6,33.8l-27.4-3.4l7.2,14.8l-40.6,23
			C1465.5,930.7,1465.5,936.6,1469.6,939z"/>
	</g>
</g>
<linearGradient id="SVGID_00000046300779052428331920000000290676654772093864_" gradientUnits="userSpaceOnUse" x1="1528.9368" y1="249.0213" x2="1790.3668" y2="447.1716" gradientTransform="matrix(1 0 0 -1 0 1200)">
	<stop  offset="0" style="stop-color:#211E39"/>
	<stop  offset="1" style="stop-color:#FFFFFF;stop-opacity:0"/>
</linearGradient>
<path style="fill:url(#SVGID_00000046300779052428331920000000290676654772093864_);" d="M1469.6,939l76.3,44.9
	c6.5,3.8,14.6,3.8,21-0.1l116.2-69.6L1590,860l-59.6,33.8l-27.4-3.4l7.2,14.8l-40.6,23C1465.5,930.7,1465.5,936.6,1469.6,939z"/>
<g>
	<g>
		<defs>
			<polygon id="SVGID_00000143589789848005505890000015792101372811677372_" points="1,1 2,1 1,2 			"/>
		</defs>
		<defs>
			<polygon id="SVGID_00000036929856753342313730000003040814988462147721_" points="-1,-1 -2,-1 -1,-2 			"/>
		</defs>
		<clipPath id="SVGID_00000170279010366021094130000006976801717277568654_">
			<use xlink:href="#SVGID_00000143589789848005505890000015792101372811677372_"  style="overflow:visible;"/>
		</clipPath>
		
			<clipPath id="SVGID_00000142138575090951535090000004445914376314542003_" style="clip-path:url(#SVGID_00000170279010366021094130000006976801717277568654_);">
			<use xlink:href="#SVGID_00000036929856753342313730000003040814988462147721_"  style="overflow:visible;"/>
		</clipPath>
		<defs>
			
				<filter id="Adobe_OpacityMaskFilter_00000056409161422770080620000013204132530731063228_" filterUnits="userSpaceOnUse" x="914.8" y="707.4" width="455.8" height="278.4">
				<feColorMatrix  type="matrix" values="1 0 0 0 0  0 1 0 0 0  0 0 1 0 0  0 0 0 1 0"/>
			</filter>
		</defs>
		
			<mask maskUnits="userSpaceOnUse" x="914.8" y="707.4" width="455.8" height="278.4" id="SVGID_00000100381586490598361020000006928226812095205042_">
			<g style="filter:url(#Adobe_OpacityMaskFilter_00000056409161422770080620000013204132530731063228_);">
				<g>
					<defs>
						<polygon id="SVGID_00000116234506801258650370000007738154153816446384_" points="1,1 2,1 1,2 						"/>
					</defs>
					<defs>
						<polygon id="SVGID_00000142887808273826782400000005588752473746773378_" points="-1,-1 -2,-1 -1,-2 						"/>
					</defs>
					
						<clipPath id="SVGID_00000034806632907827355970000008613919172441319072_" style="clip-path:url(#SVGID_00000142138575090951535090000004445914376314542003_);">
						<use xlink:href="#SVGID_00000116234506801258650370000007738154153816446384_"  style="overflow:visible;"/>
					</clipPath>
					
						<clipPath id="SVGID_00000048500857593153450550000000749091326267098788_" style="clip-path:url(#SVGID_00000034806632907827355970000008613919172441319072_);">
						<use xlink:href="#SVGID_00000142887808273826782400000005588752473746773378_"  style="overflow:visible;"/>
					</clipPath>
					
						<linearGradient id="SVGID_00000042695976823080254580000003921230148334224792_" gradientUnits="userSpaceOnUse" x1="1040.9474" y1="202.273" x2="1200.6759" y2="439.0802" gradientTransform="matrix(1 0 0 -1 0 1200)">
						<stop  offset="0" style="stop-color:#424242"/>
						<stop  offset="0.1441" style="stop-color:#3B3B3B"/>
						<stop  offset="0.3572" style="stop-color:#272727"/>
						<stop  offset="0.5107" style="stop-color:#141414"/>
						<stop  offset="0.7499" style="stop-color:#0D0D0D"/>
						<stop  offset="0.9971" style="stop-color:#000000"/>
					</linearGradient>
					
						<path style="clip-path:url(#SVGID_00000048500857593153450550000000749091326267098788_);fill:url(#SVGID_00000042695976823080254580000003921230148334224792_);" d="
						M1366.3,883.4l-292.7-176l-156.5,90.1c-3.1,1.8-3.2,6.2-0.1,8l116.9,73.8l-51.2,29.1c-24.7,14.8-24.4,38.3,0.8,52.8
						c25.5,14.7,66.9,14.7,92.4,0c0.4-0.2,20.4-11.7,45.9-26.4l78.6,49.6c2.5,1.6,5.7,1.7,8.3,0.2l157.1-85.9
						C1371.9,895.5,1372.2,887,1366.3,883.4z"/>
				</g>
			</g>
		</mask>
		
			<linearGradient id="SVGID_00000063625356081385428990000014988347400786959545_" gradientUnits="userSpaceOnUse" x1="1040.9474" y1="202.273" x2="1200.6759" y2="439.0802" gradientTransform="matrix(1 0 0 -1 0 1200)">
			<stop  offset="0" style="stop-color:#424242"/>
			<stop  offset="0.1441" style="stop-color:#3B3B3B"/>
			<stop  offset="0.3572" style="stop-color:#272727"/>
			<stop  offset="0.5107" style="stop-color:#141414"/>
			<stop  offset="0.7499" style="stop-color:#0D0D0D"/>
			<stop  offset="0.9971" style="stop-color:#000000"/>
		</linearGradient>
		
			<path style="clip-path:url(#SVGID_00000142138575090951535090000004445914376314542003_);mask:url(#SVGID_00000100381586490598361020000006928226812095205042_);fill:url(#SVGID_00000063625356081385428990000014988347400786959545_);" d="
			M1366.3,883.4l-292.7-176l-156.5,90.1c-3.1,1.8-3.2,6.2-0.1,8l116.9,73.8l-51.2,29.1c-24.7,14.8-24.4,38.3,0.8,52.8
			c25.5,14.7,66.9,14.7,92.4,0c0.4-0.2,20.4-11.7,45.9-26.4l78.6,49.6c2.5,1.6,5.7,1.7,8.3,0.2l157.1-85.9
			C1371.9,895.5,1372.2,887,1366.3,883.4z"/>
	</g>
</g>
<linearGradient id="SVGID_00000177453359381460357700000001924055772289976200_" gradientUnits="userSpaceOnUse" x1="1040.9474" y1="202.273" x2="1200.6759" y2="439.0802" gradientTransform="matrix(1 0 0 -1 0 1200)">
	<stop  offset="0" style="stop-color:#211E39"/>
	<stop  offset="0.2425" style="stop-color:#1D1A32;stop-opacity:0.7568"/>
	<stop  offset="0.6021" style="stop-color:#11101E;stop-opacity:0.3961"/>
	<stop  offset="0.9971" style="stop-color:#000000;stop-opacity:0"/>
</linearGradient>
<path style="fill:url(#SVGID_00000177453359381460357700000001924055772289976200_);" d="M1366.3,883.4l-292.7-176l-156.5,90.1
	c-3.1,1.8-3.2,6.2-0.1,8l116.9,73.8l-51.2,29.1c-24.7,14.8-24.4,38.3,0.8,52.8c25.5,14.7,66.9,14.7,92.4,0
	c0.4-0.2,20.4-11.7,45.9-26.4l78.6,49.6c2.5,1.6,5.7,1.7,8.3,0.2l157.1-85.9C1371.9,895.5,1372.2,887,1366.3,883.4z"/>
<path class="st9" d="M1326.6,740.4l37.6,151c0.6,2.5,3.5,3.7,5.7,2.4l0,0c1.4-0.8,2.2-2.4,1.9-4l-26.5-161.4L1326.6,740.4z"/>
<path class="st9" d="M1206,804.9l-5.4,176.6c-0.1,3.4,3.6,5.6,6.5,3.9c1.2-0.7,2-2,2.1-3.3l16.2-177.1L1206,804.9L1206,804.9z"/>
<path class="st9" d="M950.1,650.8l-35.4,149.4c-0.8,3.2,2.6,5.7,5.4,4l0,0c0.8-0.5,1.4-1.2,1.7-2.1L971.9,639L950.1,650.8z"/>
<g>
	<g>
		<polygon class="st11" points="929.2,661.2 1214.5,826 1360.3,741.8 1360.3,731.4 1214.5,815.6 929.2,650.9 		"/>
		<polygon class="st11" points="929.2,650.9 1214.5,815.6 1360.3,731.4 1075.1,566.7 		"/>
	</g>
</g>
<g>
	<g>
		<defs>
			<polygon id="SVGID_00000090290295255163626810000005122809326707428763_" points="1,1 2,1 1,2 			"/>
		</defs>
		<defs>
			<polygon id="SVGID_00000009573057219739444540000018170330420831960713_" points="-1,-1 -2,-1 -1,-2 			"/>
		</defs>
		<clipPath id="SVGID_00000039850344972392339710000000091185399130779320_">
			<use xlink:href="#SVGID_00000090290295255163626810000005122809326707428763_"  style="overflow:visible;"/>
		</clipPath>
		
			<clipPath id="SVGID_00000009552035836892837580000002427918283189589944_" style="clip-path:url(#SVGID_00000039850344972392339710000000091185399130779320_);">
			<use xlink:href="#SVGID_00000009573057219739444540000018170330420831960713_"  style="overflow:visible;"/>
		</clipPath>
		<defs>
			
				<filter id="Adobe_OpacityMaskFilter_00000091732576466744088480000013916221758984830849_" filterUnits="userSpaceOnUse" x="1098.4" y="661.6" width="118.5" height="69.1">
				<feColorMatrix  type="matrix" values="1 0 0 0 0  0 1 0 0 0  0 0 1 0 0  0 0 0 1 0"/>
			</filter>
		</defs>
		
			<mask maskUnits="userSpaceOnUse" x="1098.4" y="661.6" width="118.5" height="69.1" id="SVGID_00000105428615883812504300000005753760965448208823_">
			<g style="filter:url(#Adobe_OpacityMaskFilter_00000091732576466744088480000013916221758984830849_);">
				<g>
					<defs>
						<polygon id="SVGID_00000090280080125967426820000015815708228392843924_" points="1,1 2,1 1,2 						"/>
					</defs>
					<defs>
						<polygon id="SVGID_00000109746672907156330320000013907250097908507031_" points="-1,-1 -2,-1 -1,-2 						"/>
					</defs>
					
						<clipPath id="SVGID_00000107557627368680410500000012323788388046978998_" style="clip-path:url(#SVGID_00000009552035836892837580000002427918283189589944_);">
						<use xlink:href="#SVGID_00000090280080125967426820000015815708228392843924_"  style="overflow:visible;"/>
					</clipPath>
					
						<clipPath id="SVGID_00000163763806531185171040000002458112944673455015_" style="clip-path:url(#SVGID_00000107557627368680410500000012323788388046978998_);">
						<use xlink:href="#SVGID_00000109746672907156330320000013907250097908507031_"  style="overflow:visible;"/>
					</clipPath>
					
						<linearGradient id="SVGID_00000115484169149788121750000000746515679957349021_" gradientUnits="userSpaceOnUse" x1="1149.0133" y1="490.619" x2="1166.5725" y2="516.6202" gradientTransform="matrix(1 0 0 -1 0 1200)">
						<stop  offset="0" style="stop-color:#666666"/>
						<stop  offset="0.5302" style="stop-color:#333333"/>
						<stop  offset="1" style="stop-color:#000000"/>
					</linearGradient>
					
						<polygon style="clip-path:url(#SVGID_00000163763806531185171040000002458112944673455015_);fill:url(#SVGID_00000115484169149788121750000000746515679957349021_);" points="
						1098.4,679.5 1187.3,730.6 1216.9,713.6 1126.7,661.6 					"/>
				</g>
			</g>
		</mask>
		
			<linearGradient id="SVGID_00000067216893175427862120000004184827559844681345_" gradientUnits="userSpaceOnUse" x1="1149.0133" y1="490.619" x2="1166.5725" y2="516.6202" gradientTransform="matrix(1 0 0 -1 0 1200)">
			<stop  offset="0" style="stop-color:#666666"/>
			<stop  offset="0.5302" style="stop-color:#333333"/>
			<stop  offset="1" style="stop-color:#000000"/>
		</linearGradient>
		
			<polygon style="clip-path:url(#SVGID_00000009552035836892837580000002427918283189589944_);mask:url(#SVGID_00000105428615883812504300000005753760965448208823_);fill:url(#SVGID_00000067216893175427862120000004184827559844681345_);" points="
			1098.4,679.5 1187.3,730.6 1216.9,713.6 1126.7,661.6 		"/>
	</g>
</g>
<linearGradient id="SVGID_00000137822907309346658170000014587048461691055801_" gradientUnits="userSpaceOnUse" x1="1149.0133" y1="490.619" x2="1166.5725" y2="516.6202" gradientTransform="matrix(1 0 0 -1 0 1200)">
	<stop  offset="0" style="stop-color:#6FD6FF"/>
	<stop  offset="1" style="stop-color:#D2E4FF;stop-opacity:0.1"/>
</linearGradient>
<polygon style="fill:url(#SVGID_00000137822907309346658170000014587048461691055801_);" points="1098.4,679.5 1187.3,730.6 
	1216.9,713.6 1126.7,661.6 "/>
<polygon class="st35" points="1069,689.3 1164,744.1 1199.5,723.6 1199.5,720.5 1104.5,668.8 1069,686.2 "/>
<polygon class="st8" points="1069,686.2 1164,741 1199.5,720.5 1104.5,665.7 "/>
<g>
	<g>
		<path class="st0" d="M1107.1,672.8c-0.3,0.2-0.9,0.2-1.3,0l-4.3-2.5c-0.4-0.2-0.4-0.5-0.1-0.7l1.5-0.9c0.3-0.2,0.9-0.2,1.3,0
			l4.3,2.5c0.4,0.2,0.4,0.5,0.1,0.7L1107.1,672.8z"/>
		<path class="st0" d="M1101.5,675.8c-0.3,0.2-0.9,0.2-1.3,0l-4.2-2.4c-0.4-0.2-0.4-0.5-0.1-0.7l3.4-2c0.3-0.2,0.9-0.2,1.3,0
			l4.2,2.4c0.4,0.2,0.4,0.5,0.1,0.7L1101.5,675.8z"/>
		<path class="st0" d="M1099.4,680.6c-0.3,0.2-0.9,0.2-1.3,0l-7.4-4.2c-0.4-0.2-0.4-0.5-0.1-0.7l3.4-2c0.3-0.2,0.9-0.2,1.3,0
			l7.4,4.2c0.4,0.2,0.4,0.5,0.1,0.7L1099.4,680.6z"/>
		<path class="st0" d="M1095.6,684.7c-0.3,0.2-0.9,0.2-1.3,0l-9-5.1c-0.4-0.2-0.4-0.5-0.1-0.7l3.4-2c0.3-0.2,0.9-0.2,1.3,0l9,5.1
			c0.4,0.2,0.4,0.5,0.1,0.7L1095.6,684.7z"/>
		<path class="st0" d="M1087,685.9c-0.3,0.2-0.9,0.2-1.3,0l-5.7-3.2c-0.4-0.2-0.4-0.5-0.1-0.7l3.4-2c0.3-0.2,0.9-0.2,1.3,0l5.7,3.2
			c0.4,0.2,0.4,0.5,0.1,0.7L1087,685.9z"/>
		<path class="st0" d="M1079.3,688.5c-0.3,0.2-0.9,0.2-1.3,0l-4.2-2.3c-0.4-0.2-0.4-0.5-0.1-0.7l4.2-2.4c0.3-0.2,0.9-0.2,1.3,0
			l4.2,2.3c0.4,0.2,0.4,0.5,0.1,0.7L1079.3,688.5z"/>
		<path class="st0" d="M1085.7,692.1c-0.3,0.2-0.9,0.2-1.3,0l-4.2-2.3c-0.4-0.2-0.4-0.5-0.1-0.7l4.2-2.4c0.3-0.2,0.9-0.2,1.3,0
			l4.2,2.3c0.4,0.2,0.4,0.5,0.1,0.7L1085.7,692.1z"/>
		<path class="st0" d="M1092.1,695.8c-0.3,0.2-0.9,0.2-1.3,0l-4.2-2.3c-0.4-0.2-0.4-0.5-0.1-0.7l4.2-2.4c0.3-0.2,0.9-0.2,1.3,0
			l4.2,2.3c0.4,0.2,0.4,0.5,0.1,0.7L1092.1,695.8z"/>
		<path class="st0" d="M1140,722.9c-0.3,0.2-0.9,0.2-1.3,0l-5.8-3.3c-0.4-0.2-0.4-0.5-0.1-0.7l4.2-2.4c0.3-0.2,0.9-0.2,1.3,0
			l5.8,3.3c0.4,0.2,0.4,0.5,0.1,0.7L1140,722.9z"/>
		<path class="st0" d="M1146.4,726.6c-0.3,0.2-0.9,0.2-1.3,0l-4.2-2.3c-0.4-0.2-0.4-0.5-0.1-0.7l4.2-2.4c0.3-0.2,0.9-0.2,1.3,0
			l4.2,2.3c0.4,0.2,0.4,0.5,0.1,0.7L1146.4,726.6z"/>
		<path class="st0" d="M1159.3,733.8c-0.3,0.2-0.9,0.2-1.3,0l-4.2-2.3c-0.4-0.2-0.4-0.5-0.1-0.7l4.2-2.4c0.3-0.2,0.9-0.2,1.3,0
			l4.2,2.3c0.4,0.2,0.4,0.5,0.1,0.7L1159.3,733.8z"/>
		<path class="st0" d="M1152.9,730.2c-0.3,0.2-0.9,0.2-1.3,0l-4.2-2.3c-0.4-0.2-0.4-0.5-0.1-0.7l1.6-0.9c0.3-0.2,0.9-0.2,1.3,0
			l4.2,2.3c0.4,0.2,0.4,0.5,0.1,0.7L1152.9,730.2z"/>
		<path class="st0" d="M1165.7,737.5c-0.3,0.2-0.9,0.2-1.3,0l-4.2-2.3c-0.4-0.2-0.4-0.5-0.1-0.7l1.6-0.9c0.3-0.2,0.9-0.2,1.3,0
			l4.2,2.3c0.4,0.2,0.4,0.5,0.1,0.7L1165.7,737.5z"/>
		<path class="st0" d="M1100.1,700.3c-0.3,0.2-0.9,0.2-1.3,0l-5.8-3.3c-0.4-0.2-0.4-0.5-0.1-0.7l4.2-2.4c0.3-0.2,0.9-0.2,1.3,0
			l5.8,3.3c0.4,0.2,0.4,0.5,0.1,0.7L1100.1,700.3z"/>
		<path class="st0" d="M1132,718.4c-0.3,0.2-0.9,0.2-1.3,0l-29.7-16.8c-0.4-0.2-0.4-0.5-0.1-0.7l4.2-2.4c0.3-0.2,0.9-0.2,1.3,0
			l29.7,16.8c0.4,0.2,0.4,0.5,0.1,0.7L1132,718.4z"/>
		<path class="st0" d="M1107.9,679.4c-0.3,0.2-0.9,0.2-1.3,0l-4.2-2.4c-0.4-0.2-0.4-0.5-0.1-0.7l3.4-2c0.3-0.2,0.9-0.2,1.3,0
			l4.2,2.4c0.4,0.2,0.4,0.5,0.1,0.7L1107.9,679.4z"/>
		<path class="st0" d="M1114.3,683c-0.3,0.2-0.9,0.2-1.3,0l-4.2-2.4c-0.4-0.2-0.4-0.5-0.1-0.7l3.4-2c0.3-0.2,0.9-0.2,1.3,0l4.2,2.4
			c0.4,0.2,0.4,0.5,0.1,0.7L1114.3,683z"/>
		<path class="st0" d="M1120.6,686.6c-0.3,0.2-0.9,0.2-1.3,0l-4.2-2.4c-0.4-0.2-0.4-0.5-0.1-0.7l3.4-2c0.3-0.2,0.9-0.2,1.3,0
			l4.2,2.4c0.4,0.2,0.4,0.5,0.1,0.7L1120.6,686.6z"/>
		<path class="st0" d="M1127.1,690.2c-0.3,0.2-0.9,0.2-1.3,0l-4.2-2.4c-0.4-0.2-0.4-0.5-0.1-0.7l3.4-2c0.3-0.2,0.9-0.2,1.3,0
			l4.2,2.4c0.4,0.2,0.4,0.5,0.1,0.7L1127.1,690.2z"/>
		<path class="st0" d="M1133.4,693.8c-0.3,0.2-0.9,0.2-1.3,0l-4.2-2.4c-0.4-0.2-0.4-0.5-0.1-0.7l3.4-2c0.3-0.2,0.9-0.2,1.3,0
			l4.2,2.4c0.4,0.2,0.4,0.5,0.1,0.7L1133.4,693.8z"/>
		<path class="st0" d="M1139.8,697.5c-0.3,0.2-0.9,0.2-1.3,0l-4.2-2.4c-0.4-0.2-0.4-0.5-0.1-0.7l3.4-2c0.3-0.2,0.9-0.2,1.3,0
			l4.2,2.4c0.4,0.2,0.4,0.5,0.1,0.7L1139.8,697.5z"/>
		<path class="st0" d="M1146.3,701.1c-0.3,0.2-0.9,0.2-1.3,0l-4.2-2.4c-0.4-0.2-0.4-0.5-0.1-0.7l3.4-2c0.3-0.2,0.9-0.2,1.3,0
			l4.2,2.4c0.4,0.2,0.4,0.5,0.1,0.7L1146.3,701.1z"/>
		<path class="st0" d="M1152.6,704.7c-0.3,0.2-0.9,0.2-1.3,0l-4.2-2.4c-0.4-0.2-0.4-0.5-0.1-0.7l3.4-2c0.3-0.2,0.9-0.2,1.3,0
			l4.2,2.4c0.4,0.2,0.4,0.5,0.1,0.7L1152.6,704.7z"/>
		<path class="st0" d="M1159,708.3c-0.3,0.2-0.9,0.2-1.3,0l-4.2-2.4c-0.4-0.2-0.4-0.5-0.1-0.7l3.4-2c0.3-0.2,0.9-0.2,1.3,0l4.2,2.4
			c0.4,0.2,0.4,0.5,0.1,0.7L1159,708.3z"/>
		<path class="st0" d="M1165.5,712c-0.3,0.2-0.9,0.2-1.3,0l-4.2-2.4c-0.4-0.2-0.4-0.5-0.1-0.7l3.4-2c0.3-0.2,0.9-0.2,1.3,0l4.2,2.4
			c0.4,0.2,0.4,0.5,0.1,0.7L1165.5,712z"/>
		<path class="st0" d="M1171.8,715.6c-0.3,0.2-0.9,0.2-1.3,0l-4.2-2.4c-0.4-0.2-0.4-0.5-0.1-0.7l3.4-2c0.3-0.2,0.9-0.2,1.3,0
			l4.2,2.4c0.4,0.2,0.4,0.5,0.1,0.7L1171.8,715.6z"/>
		<path class="st0" d="M1105.8,684.3c-0.3,0.2-0.9,0.2-1.3,0l-4.2-2.4c-0.4-0.2-0.4-0.5-0.1-0.7l3.4-2c0.3-0.2,0.9-0.2,1.3,0
			l4.2,2.4c0.4,0.2,0.4,0.5,0.1,0.7L1105.8,684.3z"/>
		<path class="st0" d="M1112.2,687.9c-0.3,0.2-0.9,0.2-1.3,0l-4.2-2.4c-0.4-0.2-0.4-0.5-0.1-0.7l3.4-2c0.3-0.2,0.9-0.2,1.3,0
			l4.2,2.4c0.4,0.2,0.4,0.5,0.1,0.7L1112.2,687.9z"/>
		<path class="st0" d="M1118.5,691.5c-0.3,0.2-0.9,0.2-1.3,0l-4.2-2.4c-0.4-0.2-0.4-0.5-0.1-0.7l3.4-2c0.3-0.2,0.9-0.2,1.3,0
			l4.2,2.4c0.4,0.2,0.4,0.5,0.1,0.7L1118.5,691.5z"/>
		<path class="st0" d="M1124.9,695.1c-0.3,0.2-0.9,0.2-1.3,0l-4.2-2.4c-0.4-0.2-0.4-0.5-0.1-0.7l3.4-2c0.3-0.2,0.9-0.2,1.3,0
			l4.2,2.4c0.4,0.2,0.4,0.5,0.1,0.7L1124.9,695.1z"/>
		<path class="st0" d="M1131.3,698.7c-0.3,0.2-0.9,0.2-1.3,0l-4.2-2.4c-0.4-0.2-0.4-0.5-0.1-0.7l3.4-2c0.3-0.2,0.9-0.2,1.3,0
			l4.2,2.4c0.4,0.2,0.4,0.5,0.1,0.7L1131.3,698.7z"/>
		<path class="st0" d="M1137.7,702.4c-0.3,0.2-0.9,0.2-1.3,0l-4.2-2.4c-0.4-0.2-0.4-0.5-0.1-0.7l3.4-2c0.3-0.2,0.9-0.2,1.3,0
			l4.2,2.4c0.4,0.2,0.4,0.5,0.1,0.7L1137.7,702.4z"/>
		<path class="st0" d="M1144.1,706c-0.3,0.2-0.9,0.2-1.3,0l-4.2-2.4c-0.4-0.2-0.4-0.5-0.1-0.7l3.4-2c0.3-0.2,0.9-0.2,1.3,0l4.2,2.4
			c0.4,0.2,0.4,0.5,0.1,0.7L1144.1,706z"/>
		<path class="st0" d="M1150.4,709.6c-0.3,0.2-0.9,0.2-1.3,0l-4.2-2.4c-0.4-0.2-0.4-0.5-0.1-0.7l3.4-2c0.3-0.2,0.9-0.2,1.3,0
			l4.2,2.4c0.4,0.2,0.4,0.5,0.1,0.7L1150.4,709.6z"/>
		<path class="st0" d="M1156.9,713.2c-0.3,0.2-0.9,0.2-1.3,0l-4.2-2.4c-0.4-0.2-0.4-0.5-0.1-0.7l3.4-2c0.3-0.2,0.9-0.2,1.3,0
			l4.2,2.4c0.4,0.2,0.4,0.5,0.1,0.7L1156.9,713.2z"/>
		<path class="st0" d="M1163.4,716.9c-0.3,0.2-0.9,0.2-1.3,0l-4.2-2.4c-0.4-0.2-0.4-0.5-0.1-0.7l3.4-2c0.3-0.2,0.9-0.2,1.3,0
			l4.2,2.4c0.4,0.2,0.4,0.5,0.1,0.7L1163.4,716.9z"/>
		<path class="st0" d="M1169.7,720.5c-0.3,0.2-0.9,0.2-1.3,0l-4.2-2.4c-0.4-0.2-0.4-0.5-0.1-0.7l3.4-2c0.3-0.2,0.9-0.2,1.3,0
			l4.2,2.4c0.4,0.2,0.4,0.5,0.1,0.7L1169.7,720.5z"/>
		<path class="st0" d="M1176.2,724.1c-0.3,0.2-0.9,0.2-1.3,0l-4.2-2.4c-0.4-0.2-0.4-0.5-0.1-0.7l3.4-2c0.3-0.2,0.9-0.2,1.3,0
			l4.2,2.4c0.4,0.2,0.4,0.5,0.1,0.7L1176.2,724.1z"/>
		<path class="st0" d="M1102,688.3c-0.3,0.2-0.9,0.2-1.3,0l-4.2-2.4c-0.4-0.2-0.4-0.5-0.1-0.7l3.4-2c0.3-0.2,0.9-0.2,1.3,0l4.2,2.4
			c0.4,0.2,0.4,0.5,0.1,0.7L1102,688.3z"/>
		<path class="st0" d="M1108.4,691.9c-0.3,0.2-0.9,0.2-1.3,0l-4.2-2.4c-0.4-0.2-0.4-0.5-0.1-0.7l3.4-2c0.3-0.2,0.9-0.2,1.3,0
			l4.2,2.4c0.4,0.2,0.4,0.5,0.1,0.7L1108.4,691.9z"/>
		<path class="st0" d="M1114.7,695.5c-0.3,0.2-0.9,0.2-1.3,0l-4.2-2.4c-0.4-0.2-0.4-0.5-0.1-0.7l3.4-2c0.3-0.2,0.9-0.2,1.3,0
			l4.2,2.4c0.4,0.2,0.4,0.5,0.1,0.7L1114.7,695.5z"/>
		<path class="st0" d="M1121.1,699.1c-0.3,0.2-0.9,0.2-1.3,0l-4.2-2.4c-0.4-0.2-0.4-0.5-0.1-0.7l3.4-2c0.3-0.2,0.9-0.2,1.3,0
			l4.2,2.4c0.4,0.2,0.4,0.5,0.1,0.7L1121.1,699.1z"/>
		<path class="st0" d="M1127.5,702.8c-0.3,0.2-0.9,0.2-1.3,0l-4.2-2.4c-0.4-0.2-0.4-0.5-0.1-0.7l3.4-2c0.3-0.2,0.9-0.2,1.3,0
			l4.2,2.4c0.4,0.2,0.4,0.5,0.1,0.7L1127.5,702.8z"/>
		<path class="st0" d="M1133.9,706.4c-0.3,0.2-0.9,0.2-1.3,0l-4.2-2.4c-0.4-0.2-0.4-0.5-0.1-0.7l3.4-2c0.3-0.2,0.9-0.2,1.3,0
			l4.2,2.4c0.4,0.2,0.4,0.5,0.1,0.7L1133.9,706.4z"/>
		<path class="st0" d="M1140.3,710c-0.3,0.2-0.9,0.2-1.3,0l-4.2-2.4c-0.4-0.2-0.4-0.5-0.1-0.7l3.4-2c0.3-0.2,0.9-0.2,1.3,0l4.2,2.4
			c0.4,0.2,0.4,0.5,0.1,0.7L1140.3,710z"/>
		<path class="st0" d="M1146.6,713.6c-0.3,0.2-0.9,0.2-1.3,0l-4.2-2.4c-0.4-0.2-0.4-0.5-0.1-0.7l3.4-2c0.3-0.2,0.9-0.2,1.3,0
			l4.2,2.4c0.4,0.2,0.4,0.5,0.1,0.7L1146.6,713.6z"/>
		<path class="st0" d="M1153.1,717.2c-0.3,0.2-0.9,0.2-1.3,0l-4.2-2.4c-0.4-0.2-0.4-0.5-0.1-0.7l3.4-2c0.3-0.2,0.9-0.2,1.3,0
			l4.2,2.4c0.4,0.2,0.4,0.5,0.1,0.7L1153.1,717.2z"/>
		<path class="st0" d="M1159.6,720.9c-0.3,0.2-0.9,0.2-1.3,0l-4.2-2.4c-0.4-0.2-0.4-0.5-0.1-0.7l3.4-2c0.3-0.2,0.9-0.2,1.3,0
			l4.2,2.4c0.4,0.2,0.4,0.5,0.1,0.7L1159.6,720.9z"/>
		<path class="st0" d="M1165.9,724.5c-0.3,0.2-0.9,0.2-1.3,0l-4.2-2.4c-0.4-0.2-0.4-0.5-0.1-0.7l3.4-2c0.3-0.2,0.9-0.2,1.3,0
			l4.2,2.4c0.4,0.2,0.4,0.5,0.1,0.7L1165.9,724.5z"/>
		<path class="st0" d="M1093.4,689.5c-0.3,0.2-0.9,0.2-1.3,0l-4.2-2.4c-0.4-0.2-0.4-0.5-0.1-0.7l3.4-2c0.3-0.2,0.9-0.2,1.3,0
			l4.2,2.4c0.4,0.2,0.4,0.5,0.1,0.7L1093.4,689.5z"/>
		<path class="st0" d="M1099.8,693.2c-0.3,0.2-0.9,0.2-1.3,0l-4.2-2.4c-0.4-0.2-0.4-0.5-0.1-0.7l3.4-2c0.3-0.2,0.9-0.2,1.3,0
			l4.2,2.4c0.4,0.2,0.4,0.5,0.1,0.7L1099.8,693.2z"/>
		<path class="st0" d="M1106.2,696.7c-0.3,0.2-0.9,0.2-1.3,0l-4.2-2.4c-0.4-0.2-0.4-0.5-0.1-0.7l3.4-2c0.3-0.2,0.9-0.2,1.3,0
			l4.2,2.4c0.4,0.2,0.4,0.5,0.1,0.7L1106.2,696.7z"/>
		<path class="st0" d="M1112.6,700.4c-0.3,0.2-0.9,0.2-1.3,0l-4.2-2.4c-0.4-0.2-0.4-0.5-0.1-0.7l3.4-2c0.3-0.2,0.9-0.2,1.3,0
			l4.2,2.4c0.4,0.2,0.4,0.5,0.1,0.7L1112.6,700.4z"/>
		<path class="st0" d="M1118.9,704c-0.3,0.2-0.9,0.2-1.3,0l-4.2-2.4c-0.4-0.2-0.4-0.5-0.1-0.7l3.4-2c0.3-0.2,0.9-0.2,1.3,0l4.2,2.4
			c0.4,0.2,0.4,0.5,0.1,0.7L1118.9,704z"/>
		<path class="st0" d="M1125.3,707.6c-0.3,0.2-0.9,0.2-1.3,0l-4.2-2.4c-0.4-0.2-0.4-0.5-0.1-0.7l3.4-2c0.3-0.2,0.9-0.2,1.3,0
			l4.2,2.4c0.4,0.2,0.4,0.5,0.1,0.7L1125.3,707.6z"/>
		<path class="st0" d="M1131.8,711.2c-0.3,0.2-0.9,0.2-1.3,0l-4.2-2.4c-0.4-0.2-0.4-0.5-0.1-0.7l3.4-2c0.3-0.2,0.9-0.2,1.3,0
			l4.2,2.4c0.4,0.2,0.4,0.5,0.1,0.7L1131.8,711.2z"/>
		<path class="st0" d="M1138.1,714.8c-0.3,0.2-0.9,0.2-1.3,0l-4.2-2.4c-0.4-0.2-0.4-0.5-0.1-0.7l3.4-2c0.3-0.2,0.9-0.2,1.3,0
			l4.2,2.4c0.4,0.2,0.4,0.5,0.1,0.7L1138.1,714.8z"/>
		<path class="st0" d="M1144.5,718.5c-0.3,0.2-0.9,0.2-1.3,0l-4.2-2.4c-0.4-0.2-0.4-0.5-0.1-0.7l3.4-2c0.3-0.2,0.9-0.2,1.3,0
			l4.2,2.4c0.4,0.2,0.4,0.5,0.1,0.7L1144.5,718.5z"/>
		<path class="st0" d="M1151,722.2c-0.3,0.2-0.9,0.2-1.3,0l-4.2-2.4c-0.4-0.2-0.4-0.5-0.1-0.7l3.4-2c0.3-0.2,0.9-0.2,1.3,0l4.2,2.4
			c0.4,0.2,0.4,0.5,0.1,0.7L1151,722.2z"/>
		<path class="st0" d="M1157.3,725.7c-0.3,0.2-0.9,0.2-1.3,0l-4.2-2.4c-0.4-0.2-0.4-0.5-0.1-0.7l3.4-2c0.3-0.2,0.9-0.2,1.3,0
			l4.2,2.4c0.4,0.2,0.4,0.5,0.1,0.7L1157.3,725.7z"/>
		<path class="st0" d="M1171.8,734c-0.3,0.2-0.9,0.2-1.3,0l-12.2-6.9c-0.4-0.2-0.4-0.5-0.1-0.7l3.4-2c0.3-0.2,0.9-0.2,1.3,0
			l12.2,6.9c0.4,0.2,0.4,0.5,0.1,0.7L1171.8,734z"/>
		<path class="st0" d="M1172.3,728.2c-0.3,0.2-0.9,0.2-1.3,0l-4.2-2.4c-0.4-0.2-0.4-0.5-0.1-0.7l3.4-2c0.3-0.2,0.9-0.2,1.3,0
			l4.2,2.4c0.4,0.2,0.4,0.5,0.1,0.7L1172.3,728.2z"/>
		<path class="st0" d="M1178.2,719.2c-0.3,0.2-0.9,0.2-1.3,0l-4.2-2.4c-0.4-0.2-0.4-0.5-0.1-0.7l3.4-2c0.3-0.2,0.9-0.2,1.3,0
			l4.2,2.4c0.4,0.2,0.4,0.5,0.1,0.7L1178.2,719.2z"/>
		<path class="st0" d="M1185.9,725.1l-4.2-2.4c-0.4-0.2-0.9-0.2-1.3,0l-3.4,2c-0.3,0.2-0.3,0.5,0.1,0.7l0.9,0.5l-4.8,2.7
			c-0.3,0.2-0.3,0.5,0.1,0.7l2.6,1.4c0.4,0.2,0.9,0.2,1.3,0l5.4-3.1l0.2-0.1l3.3-1.9C1186.3,725.7,1186.2,725.3,1185.9,725.1z"/>
		<path class="st0" d="M1187.9,724.7c-0.3,0.2-0.9,0.2-1.3,0l-7.3-4.2c-0.4-0.2-0.4-0.5-0.1-0.7l3.4-2c0.3-0.2,0.9-0.2,1.3,0
			l7.3,4.2c0.4,0.2,0.4,0.5,0.1,0.7L1187.9,724.7z"/>
		<path class="st0" d="M1113.7,676.5c-0.3,0.2-0.9,0.2-1.3,0l-4.3-2.5c-0.4-0.2-0.4-0.5-0.1-0.7l1.5-0.9c0.3-0.2,0.9-0.2,1.3,0
			l4.3,2.5c0.4,0.2,0.4,0.5,0.1,0.7L1113.7,676.5z"/>
		<path class="st0" d="M1120.3,680.3c-0.3,0.2-0.9,0.2-1.3,0l-4.3-2.5c-0.4-0.2-0.4-0.5-0.1-0.7l1.5-0.9c0.3-0.2,0.9-0.2,1.3,0
			l4.3,2.5c0.4,0.2,0.4,0.5,0.1,0.7L1120.3,680.3z"/>
		<path class="st0" d="M1126.9,684c-0.3,0.2-0.9,0.2-1.3,0l-4.3-2.5c-0.4-0.2-0.4-0.5-0.1-0.7l1.5-0.9c0.3-0.2,0.9-0.2,1.3,0
			l4.3,2.5c0.4,0.2,0.4,0.5,0.1,0.7L1126.9,684z"/>
		<path class="st0" d="M1133.6,687.8c-0.3,0.2-0.9,0.2-1.3,0l-4.3-2.5c-0.4-0.2-0.4-0.5-0.1-0.7l1.5-0.9c0.3-0.2,0.9-0.2,1.3,0
			l4.3,2.5c0.4,0.2,0.4,0.5,0.1,0.7L1133.6,687.8z"/>
		<path class="st0" d="M1140.2,691.5c-0.3,0.2-0.9,0.2-1.3,0l-4.3-2.5c-0.4-0.2-0.4-0.5-0.1-0.7l1.5-0.9c0.3-0.2,0.9-0.2,1.3,0
			l4.3,2.5c0.4,0.2,0.4,0.5,0.1,0.7L1140.2,691.5z"/>
		<path class="st0" d="M1146.9,695.3c-0.3,0.2-0.9,0.2-1.3,0l-4.3-2.5c-0.4-0.2-0.4-0.5-0.1-0.7l1.5-0.9c0.3-0.2,0.9-0.2,1.3,0
			l4.3,2.5c0.4,0.2,0.4,0.5,0.1,0.7L1146.9,695.3z"/>
		<path class="st0" d="M1153.4,699c-0.3,0.2-0.9,0.2-1.3,0l-4.3-2.5c-0.4-0.2-0.4-0.5-0.1-0.7l1.5-0.9c0.3-0.2,0.9-0.2,1.3,0
			l4.3,2.5c0.4,0.2,0.4,0.5,0.1,0.7L1153.4,699z"/>
		<path class="st0" d="M1160.1,702.8c-0.3,0.2-0.9,0.2-1.3,0l-4.3-2.5c-0.4-0.2-0.4-0.5-0.1-0.7l1.5-0.9c0.3-0.2,0.9-0.2,1.3,0
			l4.3,2.5c0.4,0.2,0.4,0.5,0.1,0.7L1160.1,702.8z"/>
		<path class="st0" d="M1166.7,706.5c-0.3,0.2-0.9,0.2-1.3,0l-4.3-2.5c-0.4-0.2-0.4-0.5-0.1-0.7l1.5-0.9c0.3-0.2,0.9-0.2,1.3,0
			l4.3,2.5c0.4,0.2,0.4,0.5,0.1,0.7L1166.7,706.5z"/>
		<path class="st0" d="M1173.4,710.3c-0.3,0.2-0.9,0.2-1.3,0l-4.3-2.5c-0.4-0.2-0.4-0.5-0.1-0.7l1.5-0.9c0.3-0.2,0.9-0.2,1.3,0
			l4.3,2.5c0.4,0.2,0.4,0.5,0.1,0.7L1173.4,710.3z"/>
		<path class="st0" d="M1180,714c-0.3,0.2-0.9,0.2-1.3,0l-4.3-2.5c-0.4-0.2-0.4-0.5-0.1-0.7l1.5-0.9c0.3-0.2,0.9-0.2,1.3,0l4.3,2.5
			c0.4,0.2,0.4,0.5,0.1,0.7L1180,714z"/>
		<path class="st0" d="M1186.7,717.8c-0.3,0.2-0.9,0.2-1.3,0l-4.3-2.5c-0.4-0.2-0.4-0.5-0.1-0.7l1.5-0.9c0.3-0.2,0.9-0.2,1.3,0
			l4.3,2.5c0.4,0.2,0.4,0.5,0.1,0.7L1186.7,717.8z"/>
		<path class="st0" d="M1193.2,721.5c-0.3,0.2-0.9,0.2-1.3,0l-4.3-2.5c-0.4-0.2-0.4-0.5-0.1-0.7l1.5-0.9c0.3-0.2,0.9-0.2,1.3,0
			l4.3,2.5c0.4,0.2,0.4,0.5,0.1,0.7L1193.2,721.5z"/>
	</g>
</g>
<path class="st36" d="M1115.5,839c-1.7-9.7-48-35.2-65-40.7c-13.7-4.4-40,8.2-48.9,17.3c-17,17.3,33.8,49,48.5,53.2
	S1117.1,848.7,1115.5,839z"/>
<path class="st37" d="M1049.8,799.7c0,0,4.5-1.7,11.5-3.4c8.8-2.1,20.9-3.7,27-0.9c11.6,5.3,10.7,13.8,10.7,13.8s8.8-3.3,17.3,3
	c6,4.5,8.3,8.5,8.3,17.8s0,9.4,0,9.4l-74.9,28.1V799.7z"/>
<path class="st38" d="M1060.1,888.1c0,0-2.9,19,10.5,14.9c14.2-4.4,35.7-21.5,31.9-27s-22.9,1.5-27.4,3.5
	C1070.5,881.4,1060.6,884.3,1060.1,888.1z"/>
<path class="st38" d="M1108.3,908c0,0-4,20.1,10.5,15.3c14.6-4.9,37.7-19.8,31.3-27.2c-4.4-5.2-21.6,1-26.3,3
	C1119,901.1,1108.8,904.1,1108.3,908z"/>
<path class="st10" d="M1108.4,897.4l0.2,8.9c0.1,3.6,3.1,6.5,6.7,6.5c3.6-0.1,6.5-3.1,6.4-6.7l-0.2-8.9L1108.4,897.4z"/>
<path class="st10" d="M1061.9,876.9l-0.3,8.8c-0.1,3.6,2.6,6.6,6.2,6.7s6.6-2.6,6.7-6.2l0.3-8.8L1061.9,876.9z"/>
<path class="st37" d="M1064.6,804.3l-31-6.8l25.4,84.9c0,0,7.1,6.2,18,1.8l11.6-42.7l16.6,60c0,0,7,7.6,17.9-1l0.9-76.2
	L1064.6,804.3z"/>
<path class="st9" d="M1041.8,871.9l5.6,102.3c0.1,2.2,1.9,3.9,4.1,3.9l0,0c2.2,0,4-1.7,4.1-4l4-102.2L1041.8,871.9L1041.8,871.9z"/>
<path class="st9" d="M992.3,844.2c-0.5,0.7-20.9,67.2-25.9,83.5c-0.7,2.1,0.5,4.4,2.7,5l0,0c1.9,0.6,4-0.3,4.8-2.2l35-76
	L992.3,844.2z"/>
<path class="st9" d="M1089.8,866.3l30.5,69.5c0.8,1.8,2.9,2.6,4.8,1.8l0,0c1.6-0.7,2.4-2.5,1.9-4.3l-22.5-76.3L1089.8,866.3z"/>
<path class="st39" d="M994.2,700.7l23.2,35.6c3.4,5,10.4,6.2,15.5,2.8c5.1-3.5,6.5-10.4,3.1-15.4l-25-36.9
	C1004.2,682.4,990.8,695.7,994.2,700.7z"/>
<path class="st40" d="M1078.5,685.9c7.3-4.4,13.8-5.4,18.7,0.1c4.1,4.5,2.7,13.9-4.6,18.3c-4.2,2.5-7.2,2.5-11,1.8l-13.5,7.9
	l-7-11.7l11.9-7.1C1074.1,691.4,1074.2,688.4,1078.5,685.9z"/>
<path class="st37" d="M1031.8,739.8l46.9-28.5c0.8-12.1-10.3-16.4-10.3-16.4l-47.1,25c-5.5,2.9-7.6,9.7-4.8,15.2
	c0.5,1.1,1.2,2,2.1,2.8C1022,741.2,1027.3,742.1,1031.8,739.8z"/>
<polygon class="st41" points="1057.5,869.1 1058.2,825 1015.2,795.2 991.3,803.9 991.5,838.8 "/>
<path class="st42" d="M1058.2,708.9l-34.9-19.9c-14.5-8.3-31.8-2-31.8,16l-0.2,98.9c0,0,13.4,34.2,66.9,21V708.9z"/>
<polygon class="st37" points="1058.2,731.7 1045.5,724 1058.2,767.5 "/>
<path class="st42" d="M1049.1,708.2c-6.2,0.5-7.9,11.5-4.5,16.6l33.3,49.1c3.4,5,10.4,6.2,15.5,2.8s6.5-10.4,3.1-15.4l-30.4-44.7
	c-1.9-2.8-4.7-6-8-7.5C1055.7,707.8,1053,707.9,1049.1,708.2z"/>
<path class="st40" d="M1139.1,723.4c7.3-4.4,13.8-5.4,18.7,0.1c4.1,4.5,2.7,13.9-4.6,18.3c-4.2,2.5-7.2,2.5-11,1.8l-13.5,7.9
	l-7-11.7l11.9-7.1C1134.7,729,1134.8,726,1139.1,723.4z"/>
<path class="st42" d="M1092.4,777.3l46.9-28.5c0.8-12.1-10.3-16.4-10.3-16.4l-47.1,25c-5.5,2.9-7.6,9.7-4.8,15.2
	c0.6,1.1,1.2,2,2.1,2.8C1082.6,778.7,1087.9,779.7,1092.4,777.3z"/>
<polygon class="st43" points="1040.3,676.1 1020,676.1 1020,692.3 1028.4,696.7 1040.3,699.4 "/>
<path class="st43" d="M1035.6,649.5h13.7c6.2,0,11.2,5,11.2,11.2v18.1c0,12.6-14,20.1-24.5,13.2l-12.2-8.2
	c-5.9-4.7-7.2-8.2-7.3-14.7C1016.3,658.2,1024.9,649.5,1035.6,649.5z"/>
<path class="st44" d="M1063.8,652.5c2-21-22.2-26.3-40.2-16.8c-20.6,10.8-12.2,40.8-1.3,46.7c13.2,7.1,15.9-13.9,22.9-18.4
	C1051.8,659.8,1062.3,667.6,1063.8,652.5z"/>
<g>
	<path class="st45" d="M1041.1,702c0,0-0.1,0-0.1,0c-21.5-1.5-24.8-13.4-24.9-14c-0.2-1,0.3-1.9,1.3-2.2c1-0.2,2.3,0.5,2.5,1.5
		c0.1,0.5,2.6,9.8,21.4,11.1c1,0.1,1.7,0.9,1.7,1.9C1042.8,701.3,1042,702,1041.1,702z"/>
</g>
<path class="st10" d="M1113.7,819.3c-6.9,2.8-29.2,12.9-45.3,20.3c-3.9,1.8-10.3,3.8-13.8,2.1s-3.8-7.3-4.7-11.4c0,0,0-0.1,0-0.1
	c-1.1-8.7-6.7-22.5-14.7-41.3c-7.4-17.5-47.7-46.7-64.6-37.4c-8.6,4.7-7.2,32.8-6.8,47.8c1,39.9,30.6,55.5,68.2,70.6
	c37.6,15.1,59.2-2.2,78.3-12.2c14.3-7.5,17-21.8,17-21.8C1130.8,820.6,1124.7,814.8,1113.7,819.3z"/>
<path class="st46" d="M1010.9,685.4c0,0,4.3-2.5,2-8.2c-4-9.5-8.9-38.2,16.5-46c22.4-6.9,36.2,5.9,36.2,16.1
	c0,16.3-22.7,29.5-17.1,56.2C1048.6,703.5,1021.3,707,1010.9,685.4z"/>
<path class="st9" d="M1062.3,658.8c-8.1,9.8-13.9,20.3-29.6,26c-7.4,2.7-13.4,1.7-19.2-3.4c-0.5,2.7-2.6,3.9-2.6,3.9
	c10.4,21.7,37.6,18.1,37.6,18.1C1044.3,683.2,1056.3,670.7,1062.3,658.8z"/>
<g>
	<g>
		<defs>
			<polygon id="SVGID_00000142854804578736245880000012421541894708666516_" points="1,1 2,1 1,2 			"/>
		</defs>
		<defs>
			<polygon id="SVGID_00000005967182831906337590000010850285652284616619_" points="-1,-1 -2,-1 -1,-2 			"/>
		</defs>
		<clipPath id="SVGID_00000057150501002506238500000003848209691338874543_">
			<use xlink:href="#SVGID_00000142854804578736245880000012421541894708666516_"  style="overflow:visible;"/>
		</clipPath>
		
			<clipPath id="SVGID_00000057140131649754546440000010401732167675067794_" style="clip-path:url(#SVGID_00000057150501002506238500000003848209691338874543_);">
			<use xlink:href="#SVGID_00000005967182831906337590000010850285652284616619_"  style="overflow:visible;"/>
		</clipPath>
		<defs>
			
				<filter id="Adobe_OpacityMaskFilter_00000158023947005231940610000005573519442996200601_" filterUnits="userSpaceOnUse" x="1134.3" y="621" width="144.9" height="84.8">
				<feColorMatrix  type="matrix" values="1 0 0 0 0  0 1 0 0 0  0 0 1 0 0  0 0 0 1 0"/>
			</filter>
		</defs>
		
			<mask maskUnits="userSpaceOnUse" x="1134.3" y="621" width="144.9" height="84.8" id="SVGID_00000155108303355918205120000017958884736501308076_">
			<g style="filter:url(#Adobe_OpacityMaskFilter_00000158023947005231940610000005573519442996200601_);">
				<g>
					<defs>
						<polygon id="SVGID_00000062154584627786951920000011623507646399855795_" points="1,1 2,1 1,2 						"/>
					</defs>
					<defs>
						<polygon id="SVGID_00000176009521163334046210000017396846627308570795_" points="-1,-1 -2,-1 -1,-2 						"/>
					</defs>
					
						<clipPath id="SVGID_00000002343891887282325940000007936367852083745706_" style="clip-path:url(#SVGID_00000057140131649754546440000010401732167675067794_);">
						<use xlink:href="#SVGID_00000062154584627786951920000011623507646399855795_"  style="overflow:visible;"/>
					</clipPath>
					
						<clipPath id="SVGID_00000162336345787589657200000011261266408512583611_" style="clip-path:url(#SVGID_00000002343891887282325940000007936367852083745706_);">
						<use xlink:href="#SVGID_00000176009521163334046210000017396846627308570795_"  style="overflow:visible;"/>
					</clipPath>
					
						<linearGradient id="SVGID_00000016774468805814528060000006146481309686026126_" gradientUnits="userSpaceOnUse" x1="1189.2369" y1="509.5408" x2="1226.4081" y2="568.2712" gradientTransform="matrix(1 0 0 -1 0 1200)">
						<stop  offset="0" style="stop-color:#4D4D4D"/>
						<stop  offset="0.5302" style="stop-color:#0D0D0D"/>
						<stop  offset="1" style="stop-color:#000000"/>
					</linearGradient>
					
						<polygon style="clip-path:url(#SVGID_00000162336345787589657200000011261266408512583611_);fill:url(#SVGID_00000016774468805814528060000006146481309686026126_);" points="
						1279.2,684.6 1169,621 1134.3,641.1 1165.7,659.6 1155.3,668 1177.3,683.2 1194.5,676.6 1243.9,705.8 					"/>
				</g>
			</g>
		</mask>
		
			<linearGradient id="SVGID_00000111158758341389025870000007027988826572652215_" gradientUnits="userSpaceOnUse" x1="1189.2369" y1="509.5408" x2="1226.4081" y2="568.2712" gradientTransform="matrix(1 0 0 -1 0 1200)">
			<stop  offset="0" style="stop-color:#4D4D4D"/>
			<stop  offset="0.5302" style="stop-color:#0D0D0D"/>
			<stop  offset="1" style="stop-color:#000000"/>
		</linearGradient>
		
			<polygon style="clip-path:url(#SVGID_00000057140131649754546440000010401732167675067794_);mask:url(#SVGID_00000155108303355918205120000017958884736501308076_);fill:url(#SVGID_00000111158758341389025870000007027988826572652215_);" points="
			1279.2,684.6 1169,621 1134.3,641.1 1165.7,659.6 1155.3,668 1177.3,683.2 1194.5,676.6 1243.9,705.8 		"/>
	</g>
</g>
<linearGradient id="SVGID_00000177452156428765210850000014093051688241498552_" gradientUnits="userSpaceOnUse" x1="1189.2369" y1="509.5408" x2="1226.4081" y2="568.2712" gradientTransform="matrix(1 0 0 -1 0 1200)">
	<stop  offset="0" style="stop-color:#6FD6FF"/>
	<stop  offset="1" style="stop-color:#FFFFFF;stop-opacity:0.1"/>
</linearGradient>
<polygon style="fill:url(#SVGID_00000177452156428765210850000014093051688241498552_);" points="1279.2,684.6 1169,621 
	1134.3,641.1 1165.7,659.6 1155.3,668 1177.3,683.2 1194.5,676.6 1243.9,705.8 "/>
<polygon class="st54" points="1155.3,670.6 1177.3,683.2 1197.1,671.6 1199.1,664 1196.9,662.3 1175.6,652.5 1174.2,658.4 
	1155.3,668 "/>
<polygon class="st55" points="1155.3,668 1177.3,680.5 1194.9,670.3 1196.9,662.3 1175.6,650 1173.5,657.5 "/>
<path class="st56" d="M1134.3,622.8l113,71.6c0,0,6.4-2.4,6.4-6v-99.9c0-2.3-1.2-4.5-3.2-5.7L1138.2,517c-1.4-0.8-3.1-0.8-4.4,0.1
	l-4.4,2.8L1134.3,622.8z"/>
<path class="st10" d="M1127.4,613l121.5,68.9v-90.8c0-2.5-1.3-4.9-3.5-6.1l-112.5-65c-2.4-1.4-5.4,0.3-5.4,3.1L1127.4,613
	L1127.4,613z"/>
<path class="st11" d="M1129.9,627.9l115,66.4c1.8,1,4-0.3,4-2.3v-10l-121.5-70.1v11.8C1127.4,625.4,1128.4,627,1129.9,627.9z"/>
<polygon class="st8" points="1135.1,608.2 1241.8,670.4 1241.8,590.9 1135.1,529.6 "/>
<g>
	<g>
		<defs>
			<polygon id="SVGID_00000048495172354708476420000003245128738261133221_" points="1,1 2,1 1,2 			"/>
		</defs>
		<defs>
			<polygon id="SVGID_00000150096385828960394490000009435970024620150710_" points="-1,-1 -2,-1 -1,-2 			"/>
		</defs>
		<clipPath id="SVGID_00000175298080233170656030000014379797437877726874_">
			<use xlink:href="#SVGID_00000048495172354708476420000003245128738261133221_"  style="overflow:visible;"/>
		</clipPath>
		
			<clipPath id="SVGID_00000115477810363706188960000009224920710851936140_" style="clip-path:url(#SVGID_00000175298080233170656030000014379797437877726874_);">
			<use xlink:href="#SVGID_00000150096385828960394490000009435970024620150710_"  style="overflow:visible;"/>
		</clipPath>
		<defs>
			
				<filter id="Adobe_OpacityMaskFilter_00000093135839019581347290000010109902004787313793_" filterUnits="userSpaceOnUse" x="1013.2" y="336.4" width="229.9" height="138.5">
				<feColorMatrix  type="matrix" values="1 0 0 0 0  0 1 0 0 0  0 0 1 0 0  0 0 0 1 0"/>
			</filter>
		</defs>
		
			<mask maskUnits="userSpaceOnUse" x="1013.2" y="336.4" width="229.9" height="138.5" id="SVGID_00000152961895003973316870000009877915319114889887_">
			<g style="filter:url(#Adobe_OpacityMaskFilter_00000093135839019581347290000010109902004787313793_);">
				<g>
					<defs>
						<polygon id="SVGID_00000016042095971518994040000016412676465504693404_" points="1,1 2,1 1,2 						"/>
					</defs>
					<defs>
						<polygon id="SVGID_00000101814449054744079560000006837935948027220395_" points="-1,-1 -2,-1 -1,-2 						"/>
					</defs>
					
						<clipPath id="SVGID_00000073705800012031581750000001924400787579804862_" style="clip-path:url(#SVGID_00000115477810363706188960000009224920710851936140_);">
						<use xlink:href="#SVGID_00000016042095971518994040000016412676465504693404_"  style="overflow:visible;"/>
					</clipPath>
					
						<clipPath id="SVGID_00000032627099982123963390000007875333636470524809_" style="clip-path:url(#SVGID_00000073705800012031581750000001924400787579804862_);">
						<use xlink:href="#SVGID_00000101814449054744079560000006837935948027220395_"  style="overflow:visible;"/>
					</clipPath>
					
						<linearGradient id="SVGID_00000089570412455810606500000006847718138514208697_" gradientUnits="userSpaceOnUse" x1="1071.9298" y1="741.0045" x2="1195.2097" y2="865.4695" gradientTransform="matrix(1 0 0 -1 0 1200)">
						<stop  offset="0" style="stop-color:#333333"/>
						<stop  offset="0.2155" style="stop-color:#2C2C2C"/>
						<stop  offset="0.5107" style="stop-color:#1A1A1A"/>
						<stop  offset="0.716" style="stop-color:#121212"/>
						<stop  offset="0.9971" style="stop-color:#000000"/>
					</linearGradient>
					
						<polygon style="clip-path:url(#SVGID_00000032627099982123963390000007875333636470524809_);fill:url(#SVGID_00000089570412455810606500000006847718138514208697_);" points="
						1013.2,420.4 1086.2,474.9 1243.1,384.1 1158.2,336.4 					"/>
				</g>
			</g>
		</mask>
		
			<linearGradient id="SVGID_00000018231779370260084770000000055943001566325152_" gradientUnits="userSpaceOnUse" x1="1071.9298" y1="741.0045" x2="1195.2097" y2="865.4695" gradientTransform="matrix(1 0 0 -1 0 1200)">
			<stop  offset="0" style="stop-color:#333333"/>
			<stop  offset="0.2155" style="stop-color:#2C2C2C"/>
			<stop  offset="0.5107" style="stop-color:#1A1A1A"/>
			<stop  offset="0.716" style="stop-color:#121212"/>
			<stop  offset="0.9971" style="stop-color:#000000"/>
		</linearGradient>
		
			<polygon style="clip-path:url(#SVGID_00000115477810363706188960000009224920710851936140_);mask:url(#SVGID_00000152961895003973316870000009877915319114889887_);fill:url(#SVGID_00000018231779370260084770000000055943001566325152_);" points="
			1013.2,420.4 1086.2,474.9 1243.1,384.1 1158.2,336.4 		"/>
	</g>
</g>
<radialGradient id="SVGID_00000170248031659052209820000002552262076832459424_" cx="1067.0239" cy="749.8896" r="162.1369" gradientTransform="matrix(1 0 0 -1 0 1200)" gradientUnits="userSpaceOnUse">
	<stop  offset="0" style="stop-color:#211E39"/>
	<stop  offset="0.8246" style="stop-color:#FFFFFF;stop-opacity:0"/>
</radialGradient>
<polyline style="fill:url(#SVGID_00000170248031659052209820000002552262076832459424_);" points="1213.8,367.7 1158.2,336.4 
	1013.2,420.4 1086.2,474.9 1213.8,401.1 "/>
<path class="st10" d="M1184.8,651.3c0,1.5-1.2,2.3-2.8,1.7c-1.5-0.6-2.8-2.3-2.8-3.8c0-1.5,1.2-2.3,2.8-1.7
	C1183.6,648,1184.8,649.8,1184.8,651.3z"/>
<g>
	<g>
		<path class="st0" d="M1198.9,578.9c-3.1-4.6-7.3-8.5-11.8-11.2c-4.5-2.6-8.7-3.5-11.8-2.5c-3.2,1-4.9,4-4.9,8.5
			c0,6.2,3.3,14.4,8.2,20.1v3.5c0,1.2,1,2.8,2.2,3.5c0.9,0.5,1.7,0.4,2-0.2c0.1,1.2,1,2.7,2.2,3.3c1,0.6,1.9,0.4,2.1-0.4
			c0.2,1.1,1.1,2.3,2.1,2.8c1.2,0.7,2.1,0.3,2.2-0.8c0.3,1,1.1,2,2,2.6c1.2,0.7,2.2,0.3,2.2-0.9v-3.5c4.8-0.1,8.2-4.5,8.2-10.7
			C1203.8,588.6,1202,583.6,1198.9,578.9z M1180.7,588.2c-2.2-1.3-4-4.1-4-6.3s1.8-3,4-1.7c2.2,1.3,4,4.1,4,6.3
			C1184.7,588.8,1182.9,589.5,1180.7,588.2z M1188.8,598.6c-0.6,0.1-1.2-0.3-1.7-1.7c0,0,0,0,0,0c0,0,0,0,0,0
			c-0.5,0.8-1.1,0.5-1.7-0.2s-0.8-1.6-0.3-2.5c0.5-0.8,2-1.2,2-1.2l0,0l0,0c0,0,1.6,2.1,2,3.5
			C1189.6,597.9,1189.3,598.5,1188.8,598.6z M1193.5,595.6c-2.2-1.3-4-4.1-4-6.3c0-2.2,1.8-3,4-1.7c2.2,1.3,4,4.1,4,6.3
			S1195.7,596.9,1193.5,595.6z"/>
	</g>
	<g>
		<g>
			<path class="st0" d="M1207.4,634.7c0.9,0.3,1.6,0.1,2-0.5c0.6-1.1-0.1-3.2-1.6-4.7s-3.2-1.7-3.8-0.6c0,0,0,0.1-0.1,0.1
				c-11.1-9.9-21.8-20.5-32.2-31.8c0,0,0-0.1,0.1-0.1c0.6-1.1-0.1-3.2-1.6-4.7c-1.5-1.5-3.2-1.7-3.8-0.6c-0.4,0.7-0.2,1.7,0.2,2.8
				c-0.9-0.3-1.6-0.1-2,0.5c-0.6,1.1,0.1,3.2,1.6,4.7c1.5,1.5,3.2,1.7,3.8,0.6c0,0,0-0.1,0.1-0.1c11.1,9.9,21.8,20.5,32.2,31.8
				c0,0,0,0.1-0.1,0.1c-0.6,1.1,0.1,3.2,1.6,4.7c1.5,1.5,3.2,1.7,3.8,0.6C1208,636.8,1207.9,635.8,1207.4,634.7z"/>
		</g>
		<g>
			<path class="st0" d="M1166.8,611.3c-0.9-0.7-1.6-1.8-2-2.9c-0.6-1.8,0.1-3.1,1.6-2.8s3.2,1.9,3.8,3.7c0,0.1,0,0.1,0.1,0.2
				c11.1,2.9,21.8,4.7,32.2,5.4c0-0.1,0-0.1-0.1-0.2c-0.6-1.8,0.1-3.1,1.6-2.8s3.2,1.9,3.8,3.7c0.4,1.1,0.2,2-0.2,2.5
				c0.9,0.7,1.6,1.8,2,2.9c0.6,1.8-0.1,3.1-1.6,2.8s-3.2-1.9-3.8-3.7c0-0.1,0-0.1-0.1-0.2c-11.1-2.9-21.8-4.7-32.2-5.4
				c0,0.1,0,0.1,0.1,0.2c0.6,1.8-0.1,3.1-1.6,2.8s-3.2-1.9-3.8-3.7C1166.2,612.7,1166.3,611.8,1166.8,611.3z"/>
		</g>
	</g>
</g>
<g>
	<polygon class="st37" points="1086.2,474.9 1000.7,524.4 915.2,474.9 915.2,455.2 1000.7,425.5 1086.2,455.2 	"/>
	<polygon class="st37" points="1086.2,463.1 1000.7,512.6 915.2,463.1 915.2,443.4 1000.7,413.7 1086.2,443.4 	"/>
</g>
<polygon class="st10" points="1086.2,443.4 1000.7,492.9 915.2,443.4 1000.7,394 "/>
<polygon class="st9" points="1022.9,434.7 1013.2,456.8 976,478.5 931.2,452.6 969.3,431.6 "/>
<polygon class="st9" points="1013.2,456.8 1032.6,445.7 1032.6,307.8 1013.2,318.9 "/>
<polygon class="st10" points="969.3,431.6 1013.2,456.8 1013.2,318.9 969.3,293.7 "/>
<path class="st9" d="M935.8,231.4c0-31.4,35.6-56.4,71.7-43.4c36.1,12.9,65.3,56.5,65.3,97.3s-37.6,65.4-77.9,50.8
	C958.9,322.9,935.8,272.1,935.8,231.4z"/>
<ellipse transform="matrix(0.8639 -0.5037 0.5037 0.8639 -2.8766 533.8077)" class="st10" cx="986.2" cy="272.2" rx="48.3" ry="69"/>
<ellipse transform="matrix(0.8599 -0.5104 0.5104 0.8599 -5.9731 538.6489)" class="st9" cx="978.4" cy="280.2" rx="31.7" ry="47.2"/>
<ellipse transform="matrix(0.8599 -0.5104 0.5104 0.8599 -7.7802 536.6354)" class="st0" cx="973.8" cy="282.5" rx="21.7" ry="32.2"/>
<path class="st64" d="M954.6,269.4c0-5.1,3.7-7.8,8.2-5.9s8.2,7.4,8.2,12.5s-3.7,7.8-8.2,5.9C958.3,280.1,954.6,274.5,954.6,269.4z"
	/>
<rect x="63" y="469.9" class="st65" width="770.1" height="260.3"/>
<text transform="matrix(1 0 0 1 109.7688 530.0493)" class="st66 st67 st68">Personal Vulnerability </text>
<text transform="matrix(1 0 0 1 256.0088 633.2493)" class="st66 st67 st68">Investigation</text>
<g id="Layer_3">
</g>
</svg>
